<?xml version="1.0" encoding="utf-8"?>
<!-- Generator: Adobe Illustrator 25.2.1, SVG Export Plug-In . SVG Version: 6.00 Build 0)  -->
<svg version="1.1" id="Layer_1" xmlns="http://www.w3.org/2000/svg" xmlns:xlink="http://www.w3.org/1999/xlink" x="0px" y="0px"
	 viewBox="0 0 1265.4 959" style="enable-background:new 0 0 1265.4 959;" xml:space="preserve">
<style type="text/css">
	.st0{fill:#F4F4F4;}
	.st1{fill:#B0B4B9;}
	.st2{fill:#D8DBDD;}
	.st3{opacity:0.15;enable-background:new    ;}
	.st4{fill:#D1D3D4;}
	.st5{fill:#858990;}
	.st6{fill:#B2B6BB;}
	.st7{fill:#FFFFFF;}
	.st8{fill:#F7402E;}
	.st9{opacity:0.6;fill:#FFFFFF;enable-background:new    ;}
	.st10{opacity:0.4;fill:#FFFFFF;enable-background:new    ;}
	.st11{opacity:0.85;fill:#FFFFFF;enable-background:new    ;}
	.st12{opacity:0.3;fill:#FFFFFF;enable-background:new    ;}
	.st13{fill:#61656D;}
	.st14{fill:#868A91;}
	.st15{fill:#B1B5BA;}
	.st16{opacity:0.2;}
	.st17{opacity:0.2;fill:#F7402E;enable-background:new    ;}
	.st18{opacity:0.37;fill:#F7402E;enable-background:new    ;}
	.st19{fill:#FFFFFF;stroke:#61656D;stroke-miterlimit:10;}
	.st20{opacity:0.5;fill:#FFFFFF;enable-background:new    ;}
	.st21{opacity:0.5;fill:#FFFFFF;stroke:#FFFFFF;stroke-width:2;stroke-miterlimit:10;enable-background:new    ;}
	.st22{opacity:0.2;fill:#FFFFFF;enable-background:new    ;}
	.st23{fill:#DDDDDD;}
	.st24{fill:#DADDDF;}
	.st25{opacity:0.2;enable-background:new    ;}
	.st26{fill:#C46F69;}
	.st27{opacity:0.15;}
	.st28{fill:#25282F;}
	.st29{fill:#474747;}
	.st30{opacity:0.2;fill:#2D2D2D;enable-background:new    ;}
	
		.st31{opacity:0.3;fill:none;stroke:#000000;stroke-width:1.0357;stroke-linecap:round;stroke-linejoin:round;enable-background:new    ;}
	.st32{opacity:0.3;enable-background:new    ;}
	.st33{fill:#21252B;}
	.st34{opacity:0.2;fill:#212121;enable-background:new    ;}
	.st35{fill:none;stroke:#21252B;stroke-width:1.3395;stroke-miterlimit:10;}
	.st36{fill:#F2F8FC;}
	.st37{fill:#3F4249;}
</style>
<path class="st0" d="M1167.4,940.7l83.8-336.8c2.4-9.8,2.1-20-0.8-29.6l-141.4-458.8c-3.3-10.6-9.6-19.9-18.3-26.9
	c-8.6-6.9-19.2-11.1-30.2-12l-720-56.6c-8.3-0.7-16.7,0.6-24.5,3.6c-7.8,3.1-14.8,7.8-20.5,14L35.9,319.5
	c-5.3,5.8-9.3,12.6-11.8,20.1c-2.5,7.5-3.3,15.3-2.5,23.2l60.8,578H1167.4z"/>
<path class="st1" d="M1100.5,627.6h77.7c0.5,0,1-0.1,1.5-0.3c0.5-0.2,0.9-0.5,1.3-0.9c0.4-0.4,0.7-0.8,0.8-1.3
	c0.2-0.5,0.3-1,0.3-1.5c0-0.5-0.1-1-0.3-1.5s-0.5-0.9-0.8-1.3c-0.4-0.4-0.8-0.7-1.3-0.9c-0.5-0.2-1-0.3-1.5-0.3h-77.7V627.6
	L1100.5,627.6z"/>
<path class="st1" d="M1168.2,623.8h-78.4v241.5h78.4V623.8z"/>
<path class="st2" d="M1092.2,623.8H852.4v241.5h239.8V623.8z"/>
<path class="st1" d="M1080,846.9H863.6V657.4l216.5,0.2L1080,846.9L1080,846.9z M865.3,845.1h213V659.3h-213V845.1z"/>
<path class="st2" d="M843.4,627.6h257.2c0.5,0,1-0.1,1.5-0.3c0.5-0.2,0.9-0.5,1.3-0.9c0.4-0.4,0.7-0.8,0.8-1.3
	c0.2-0.5,0.3-1,0.3-1.5c0-0.5-0.1-1-0.3-1.5c-0.2-0.5-0.5-0.9-0.8-1.3c-0.4-0.4-0.8-0.7-1.3-0.9c-0.5-0.2-1-0.3-1.5-0.3H843.4
	c-0.5,0-1,0.1-1.5,0.3c-0.5,0.2-0.9,0.5-1.3,0.9c-0.4,0.4-0.7,0.8-0.9,1.3c-0.2,0.5-0.3,1-0.3,1.5c0,1,0.4,2,1.2,2.8
	C841.4,627.2,842.4,627.6,843.4,627.6z"/>
<path class="st1" d="M1080,751H863.6v1.7H1080V751z"/>
<path class="st1" d="M962.5,687.9c3.3,0,6-2.7,6-6s-2.7-6-6-6c-3.3,0-6,2.7-6,6S959.2,687.9,962.5,687.9z"/>
<path class="st3" d="M964.7,681.8c0-1.2-0.4-2.5-1.1-3.5c-0.7-1-1.7-1.8-2.9-2.2c0.6-0.2,1.3-0.4,2-0.3c1.6,0,3.1,0.6,4.2,1.8
	c1.1,1.1,1.8,2.7,1.8,4.2c0,1.6-0.6,3.1-1.8,4.2c-1.1,1.1-2.7,1.8-4.2,1.8c-0.7,0-1.4-0.1-2-0.3c1.2-0.4,2.2-1.2,2.9-2.2
	C964.3,684.3,964.7,683.1,964.7,681.8z"/>
<path class="st1" d="M962.5,781.1c3.3,0,6-2.7,6-6c0-3.3-2.7-6-6-6c-3.3,0-6,2.7-6,6C956.5,778.4,959.2,781.1,962.5,781.1z"/>
<path class="st3" d="M964.7,775.1c0-1.2-0.4-2.5-1.1-3.5c-0.7-1-1.7-1.8-2.9-2.2c0.6-0.2,1.3-0.4,2-0.3c1.6,0,3.1,0.6,4.2,1.8
	c1.1,1.1,1.8,2.7,1.8,4.2c0,1.6-0.6,3.1-1.8,4.2c-1.1,1.1-2.7,1.8-4.2,1.8c-0.7,0-1.4-0.1-2-0.3c1.2-0.4,2.2-1.2,2.9-2.2
	C964.3,777.5,964.7,776.3,964.7,775.1z"/>
<path class="st1" d="M1104.6,635.7l-12.4-8.1H852.4v3.7L1104.6,635.7z"/>
<path class="st2" d="M1152.8,865.3l6,66.8c0.1,0.6,0.1,1.2,0,1.7c-0.2,0.6-0.4,1.1-0.8,1.5c-0.4,0.4-0.8,0.8-1.3,1.1
	c-0.5,0.3-1.1,0.4-1.7,0.4c-0.8,0-1.6-0.3-2.3-0.8s-1.2-1.2-1.4-1.9l-17.5-68.9L1152.8,865.3z"/>
<path class="st1" d="M1150.6,904.2l-7.3-1.7l-9.4-37.1h19l6,66.8c0.2,0.9,0,1.8-0.4,2.6c-0.4,0.8-1.1,1.4-1.9,1.8L1150.6,904.2z"/>
<path class="st2" d="M1084.6,865.3l6,66.8c0.1,0.6,0.1,1.2-0.1,1.7c-0.1,0.6-0.4,1.1-0.8,1.5c-0.4,0.4-0.8,0.8-1.3,1.1
	c-0.5,0.2-1.1,0.4-1.7,0.4c-0.8,0-1.6-0.3-2.3-0.8c-0.7-0.5-1.2-1.1-1.4-1.9l-17.5-68.9L1084.6,865.3z"/>
<path class="st1" d="M1078.2,872.7l-10.9-2.1l-1.8-5.3h19l6,66.8c0.2,0.9,0,1.8-0.4,2.6c-0.4,0.8-1.1,1.4-1.9,1.8L1078.2,872.7z"/>
<path class="st2" d="M934.2,865.3l-6,66.8c-0.1,0.6-0.1,1.2,0.1,1.7c0.1,0.6,0.4,1.1,0.8,1.5c0.4,0.4,0.8,0.8,1.3,1.1
	s1.1,0.4,1.7,0.4c0.8,0,1.6-0.3,2.3-0.8c0.7-0.5,1.2-1.2,1.4-1.9l17.5-68.9L934.2,865.3z"/>
<path class="st1" d="M937.6,900.8l-6.5-1.6l3.1-33.9h19l-17.5,68.9c-0.3,0.8-0.8,1.4-1.4,1.9c-0.7,0.5-1.5,0.8-2.3,0.8h-0.2
	L937.6,900.8z"/>
<path class="st2" d="M864.2,865.3l-6,66.8c-0.1,0.6-0.1,1.2,0,1.7c0.1,0.6,0.4,1.1,0.8,1.5s0.8,0.8,1.3,1.1c0.5,0.2,1.1,0.4,1.7,0.4
	c0.8,0,1.6-0.3,2.3-0.8c0.7-0.5,1.2-1.1,1.4-1.9l17.5-68.9L864.2,865.3z"/>
<path class="st1" d="M871.6,871.1l-8.3-1.5l0.9-4.3h19l-17.5,68.9c-0.3,0.8-0.8,1.4-1.4,1.9c-0.7,0.5-1.4,0.7-2.3,0.8h-0.2
	L871.6,871.1z"/>
<path class="st4" d="M1018.7,487.1c-6.1-3.8-13.1-6.2-20.3-7c-3.3-0.3-7-0.2-9.6,1.8c-0.6,0.4-1.1,1-1,1.7c0.2,0.5,0.5,0.9,0.9,1.2
	c4.3,3.1,9.4,4.9,14.7,5.3C1008.7,490.5,1014,489.5,1018.7,487.1"/>
<path class="st4" d="M1018.2,486.5c-4.7-3.5-9.1-7.3-13.1-11.5c-4-4.3-6.9-9.5-8.2-15.2c-0.3-0.8-0.3-1.7-0.2-2.6
	c0.1-0.9,0.4-1.7,0.9-2.5C1008,462.9,1016.2,473.4,1018.2,486.5"/>
<path class="st4" d="M1018.6,487c-1-5.7-0.9-11.5,0.2-17.2c1.2-5.7,4.4-10.8,9.2-14.2c1.9,4.2,1,9.1-0.2,13.5
	c-2,6.8-5,13.3-9.1,19.1"/>
<path class="st5" d="M1028.8,505.4c-6.2,1-11.8,3.9-16.3,8.2c-4.7,4.2-8,9.8-9.4,16c6.1-0.4,11.2-4.7,15-9.5s6.4-10.1,10.5-14.6"/>
<path class="st4" d="M1031.1,508.3c-2.4-6.2-3.3-13-2.5-19.6c0.8-6.6,3.3-13,7.1-18.4c1.9,6.3,2.4,12.9,1.6,19.5
	C1036.5,496.4,1034.4,502.7,1031.1,508.3"/>
<path class="st4" d="M1044.6,524.4c-5.7-0.3-11.3,1-16.3,3.8c-4.9,2.8-8.9,7.1-11.5,12.2c-0.2,0.3-0.3,0.7-0.4,1.1
	c0,0.4,0,0.8,0.2,1.1c0.2,0.2,0.5,0.4,0.9,0.5c0.3,0.1,0.7,0.1,1,0c5.5-0.4,10.3-3.7,14.3-7.4s7.5-8.1,11.9-11.3"/>
<path class="st6" d="M1044.2,523.5c-2.9-9.4-3.1-19.4-0.5-28.9c1-3.7,2.7-7.6,6.2-9.4c0.1-0.1,0.3-0.2,0.4-0.2c0.2,0,0.3,0,0.5,0
	c0.3,0.1,0.5,0.4,0.6,0.7c1.2,2.6,1.7,5.4,1.4,8.3c-0.2,2.8-0.6,5.6-1.3,8.4c-1.1,5.1-1.7,10.6-4.5,15c-0.7,1.1-1.3,2.2-1.9,3.3
	c-0.5,1.1-0.5,1.5-1,2.4"/>
<path class="st4" d="M1080,528.9c-1.2-5.3-1.2-10.7-0.1-16c1.1-5.3,3.4-10.3,6.6-14.6c0.2-0.3,0.5-0.6,0.8-0.8
	c0.3-0.2,0.7-0.3,1.1-0.4c1.2,0.1,1.5,1.7,1.4,2.8C1089.4,510.3,1086,520.3,1080,528.9"/>
<path class="st4" d="M1083.2,531.1c6.3,1.5,12.8,1.6,19.1,0.3c6.3-1.3,12.3-3.9,17.5-7.8c-6.1-3.1-13.1-3.9-19.8-2.4
	C1093.4,522.3,1087.4,525.8,1083.2,531.1"/>
<path class="st6" d="M1085.9,524.3c3.6-5.6,8.5-10.2,14.3-13.6c5.8-3.3,12.2-5.3,18.9-5.6c-0.9,2.6-2.3,5.1-4.2,7.1
	c-1.9,2.1-4.1,3.7-6.7,4.9c-5.1,2.3-10.4,3.8-15.9,4.7C1090.2,522.2,1087.3,522.7,1085.9,524.3z"/>
<path class="st4" d="M1080.7,491.7c2.1-6.3,3.5-12.8,4.2-19.4c0.7-6.7-0.6-13.4-3.9-19.3c-3.3,6-5,12.7-5.1,19.6s1.5,13.6,4.6,19.7"
	/>
<path class="st5" d="M1102.3,480.8c7.5-13.6,22.8-24.5,38.3-26.1C1134.6,469.6,1118.3,481.1,1102.3,480.8z"/>
<path class="st4" d="M1097.6,483.5c11.2,1.7,20.7,8.8,31.2,13.1c2.2,1.1,4.6,1.5,7.1,1.4c1.1-0.1,2.2-0.4,3.1-1.1
	c0.9-0.7,1.6-1.6,1.9-2.6c0.4-1,0.4-2.2,0.2-3.2s-0.9-2-1.7-2.8c-1.5-1.4-3.2-2.4-5.1-3.1c-11.4-4.8-23.6-4.9-35.6-2"/>
<path class="st4" d="M1091.1,491.3c2.5,0.7,3.4,2,5.4,3.7c6.8,5.8,14.9,10,23.6,12.2c0.9,0.2,2.1,0.3,2.5-0.5c0.4-0.8,0-1.6-0.6-2.2
	c-3.8-4.5-8.7-7.8-14.3-9.7c-5.5-2-10.2-4.5-16.7-4"/>
<path class="st4" d="M1083.8,443.9c4.6,4.2,10,7.5,15.9,9.5c5.9,2,12.2,2.8,18.4,2.2c0.6,0,1.1-0.2,1.6-0.6c0.9-0.9-0.2-2.4-1.2-3.2
	C1108.4,444,1096.2,440.7,1083.8,443.9"/>
<path class="st6" d="M1092.5,440.8c6.1-4.5,13.1-7.5,20.6-8.7c7.5-1.2,15.1-0.7,22.3,1.6c-5.6,5.2-12.8,8.4-20.4,9
	C1107.4,443.4,1099.8,442.7,1092.5,440.8"/>
<path class="st4" d="M1089,419c-1-10.1-0.3-18-1-28.1c0-0.8-0.2-1.8-1-2.1c-0.8-0.3-1.9,0.9-2.3,2c-1.5,4.7-1.9,9.7-1.1,14.5
	C1084.4,410.2,1086.2,414.8,1089,419"/>
<path class="st4" d="M1088.3,420.1c6.6-4.3,12.2-9.8,16.7-16.2c3.3-4.5,6.1-9.9,5.3-15.4c-2.3,0.1-4.6,0.6-6.7,1.7
	c-2.1,1-3.9,2.5-5.3,4.3c-2.9,3.6-5,7.9-6.1,12.3c-1.3,4.4-2.3,9-3.7,13.3"/>
<path class="st5" d="M1104.7,415.6c15-5.6,28.9-13.8,41-24.3c-4.9-1.9-10.5-0.8-15.4,1.2c-11.1,4.2-20.3,12.4-25.8,22.9"/>
<path class="st4" d="M1092.9,425.6c7.6,1.1,15.2,1.1,22.8,0.1c7.3-1.5,14.5-3.9,21.3-7.1c0.6-0.2,1.1-0.6,1.5-1.1
	c0.1-0.3,0.1-0.7,0-1c-0.1-0.3-0.3-0.6-0.6-0.9c-0.6-0.4-1.2-0.7-1.9-0.8c-7.6-1.9-15.6-1.4-23,1.4
	C1106,418.6,1099.2,421.7,1092.9,425.6"/>
<path class="st4" d="M1049.6,444.3c-2.4-5.2-3.8-10.9-3.8-16.6c-0.1-5.8,1.1-11.5,3.4-16.7c3.1,4.8,3.5,10.9,3,16.6
	c-0.5,5.7-2.3,11.6-2.4,17.3"/>
<path class="st4" d="M1029,433.9c-6.5-0.1-12.9,1.2-18.9,3.7c-6,2.5-11.3,6.3-15.8,11c6.5,0.8,13.1-0.4,18.9-3.5
	c5.8-3,11.2-6.7,16.2-10.8"/>
<path class="st4" d="M1015.1,429.2c-6.3-0.5-12.4-1.3-18.5,0.6c-3.1,0.9-5.9,2.4-8.3,4.4c-2.4,2.1-4.4,4.6-5.7,7.5
	c6,0.5,12-0.6,17.4-3.3C1005.3,435.8,1010.3,432.7,1015.1,429.2"/>
<path class="st4" d="M1035.7,429.4c-5.6-3.7-11.5-7.5-18.1-9c-6.6-1.6-14.3-0.4-18.9,4.6c5.4,3.1,11.8,3.5,18.1,3.5
	c6.2,0,13.8,0,19.7,2"/>
<path class="st5" d="M1035.7,429.7c-9.7-9.5-13.4-26.7-9.5-39.7C1033.9,401.8,1037.2,415.8,1035.7,429.7"/>
<path class="st5" d="M1062.3,402.7c1.9-4.3,3.1-8.7,4.8-13.1c1.5-4.4,3.8-8.5,6.8-12c3-3.6,7.3-5.8,12-6.2
	c-1.5,6.6-4.3,12.8-8.4,18.2c-4,5.4-9.1,9.9-15,13.2"/>
<path class="st6" d="M1057.5,408.3c-3-4.2-6.5-9.8-10.6-13c-2-1.6-4.3-2.8-6.8-3.5c-2.5-0.6-5.1-0.7-7.7-0.3
	c2.6,4.6,6.2,8.5,10.6,11.4S1052.3,407.8,1057.5,408.3"/>
<path class="st4" d="M1058.6,403c-2.2-5-3.8-10.2-4.9-15.5c-1-5.4-0.1-10.9,2.4-15.8c5.3,10.1,7,20.9,2.6,31.4"/>
<path class="st4" d="M1062.4,371.8c3-10,12.2-17.4,22.1-20.7c1.2-0.5,2.5-0.7,3.9-0.6c0.6,0.1,1.3,0.3,1.8,0.8
	c0.5,0.4,0.9,1,1.1,1.6c0.4,1.7-1,3.2-2.3,4.4C1081.1,363.8,1072.1,368.7,1062.4,371.8"/>
<path class="st6" d="M1062.5,363.6c0.1-6.5,1.1-12.9,2.9-19.1c2.1-6.1,6.1-11.8,12-14.5c1,6.5-1.9,13-5.3,18.6
	c-3.5,5.6-7.6,10.9-9.7,17.1"/>
<path class="st5" d="M1062.3,368c-2.5-7.3-2.8-16.5-7.1-22.9c-3-4.4-7.9-7.5-10.6-12.1c-1.6,4.5-1.3,9.4,0.6,13.8
	c2,4.3,4.7,8.2,8.1,11.5C1056.6,361.8,1059.3,364.3,1062.3,368"/>
<path class="st4" d="M1062.4,582.4c-0.2,0-0.4-48.6-0.4-108.5s0.1-108.5,0.3-108.5c0.2,0,0.4,48.6,0.4,108.5
	S1062.6,582.4,1062.4,582.4z"/>
<path class="st4" d="M1104.9,436.9c-0.6,0.3-1.2,0.5-1.9,0.7l-5,1.7c-4.2,1.4-10.1,3.5-16.4,6.1s-12.2,4.9-15.5,7.8
	c-1.3,1.1-2.4,2.5-3.1,4.1c-0.5,1.1-0.6,1.9-0.6,1.9c-0.1,0,0-0.2,0-0.5c0.1-0.5,0.2-1,0.4-1.4c0.6-1.7,1.7-3.2,3-4.4
	c2-1.7,4.3-3.1,6.7-4.2c2.7-1.2,5.6-2.6,8.8-3.9c6.3-2.6,12.2-4.6,16.5-6c2.2-0.7,3.9-1.2,5.1-1.5
	C1103.6,437.1,1104.2,437,1104.9,436.9L1104.9,436.9z"/>
<path class="st4" d="M1118.8,402.8c-0.2,0.2-0.3,0.4-0.5,0.5l-1.5,1.5l-5.7,5.2l-19.4,17.2c-7.5,6.7-14.1,13.1-18.7,18
	c-2.3,2.4-4.1,4.4-5.3,5.8l-1.4,1.6c-0.3,0.3-0.5,0.5-0.5,0.5c0.1-0.2,0.2-0.4,0.4-0.6c0.3-0.4,0.7-1,1.3-1.7c1.2-1.4,2.9-3.5,5.1-6
	c5.8-6.4,12-12.5,18.5-18.2c7.5-6.7,14.5-12.7,19.5-17.1l6-5.1l1.6-1.4C1118.4,403,1118.6,402.9,1118.8,402.8L1118.8,402.8z"/>
<path class="st4" d="M1083.4,434.1c-0.2,0,1.4-3.8,3-8.3c1.6-4.6,2.3-8.5,2.5-8.5c-0.2,3-0.8,5.9-1.9,8.7c-0.7,2-1.4,3.9-2.3,5.8
	C1084.4,432.7,1083.9,433.4,1083.4,434.1L1083.4,434.1z"/>
<path class="st4" d="M1062.5,463.6c-0.4-0.4-0.8-0.9-1.2-1.4l-3-3.7c-2.5-3.2-6-7.7-9.9-12.6c-3.9-4.9-7.5-9.4-10-12.5l-3-3.7
	c-0.4-0.4-0.7-0.9-1-1.4c0.4,0.4,0.9,0.8,1.2,1.3c0.8,0.8,1.9,2.1,3.2,3.6c2.7,3.1,6.3,7.5,10.2,12.4s7.3,9.3,9.7,12.7
	c1.2,1.7,2.2,3,2.8,4C1062,462.6,1062.2,463.1,1062.5,463.6L1062.5,463.6z"/>
<path class="st4" d="M1053.2,451.6c-1.9-2.1-3.2-4.6-3.9-7.3c-0.7-2.4-1-4.9-0.9-7.4h0.3c-0.1,0.6-0.2,0.9-0.3,0.9c0,0,0-0.3,0-0.9
	h0.3c0.2,2.4,0.6,4.8,1.2,7.1C1050.8,446.6,1051.9,449.2,1053.2,451.6L1053.2,451.6z"/>
<path class="st4" d="M1041.2,436.5c-0.8-0.6-1.8-1.2-2.7-1.6c-2.4-0.7-5-0.9-7.5-0.6c-2.6,0.2-5.1,0.6-7.6,1.2
	c-1,0.3-2.1,0.6-3.1,0.8c0.9-0.6,1.9-1,3-1.2c2.5-0.8,5.1-1.3,7.7-1.5c2.6-0.3,5.3,0,7.8,0.8
	C1039.7,434.8,1040.6,435.5,1041.2,436.5z"/>
<path class="st4" d="M1038.3,432.8c0,0.1-1.6-0.6-4.2-1.5c-3.4-1.1-6.9-1.8-10.4-2.1c-3.5-0.3-7.1-0.1-10.6,0.5
	c-2.7,0.5-4.3,1-4.4,0.9c0.3-0.2,0.7-0.4,1.1-0.5c1-0.4,2.1-0.7,3.2-0.9c3.5-0.8,7.2-1,10.8-0.8c3.6,0.3,7.2,1.1,10.5,2.4
	c1,0.4,2,0.8,3,1.3C1038,432.6,1038.3,432.8,1038.3,432.8z"/>
<path class="st4" d="M1062.3,417.3c-1.2-3.5-2.2-7-3-10.6c-1-3.5-1.8-7.1-2.4-10.7c1.2,3.5,2.2,7,3,10.6
	C1061,410.1,1061.8,413.7,1062.3,417.3L1062.3,417.3z"/>
<path class="st4" d="M1062.6,417.3c-1-2.2-2.1-4.3-3.4-6.3c-1.4-1.9-3.1-3.6-5-5.1c0.7,0.2,1.3,0.5,1.9,1c1.4,1,2.6,2.3,3.6,3.7
	C1061.2,412.6,1062.2,414.9,1062.6,417.3z"/>
<path class="st4" d="M1062.4,556.5c0,0-0.2-1.2-0.8-3.2c-0.8-2.9-1.9-5.7-3.2-8.4c-4.7-8.8-10.4-17-17.2-24.3
	c-3.9-4.4-7.6-8.5-10.8-12.5c-2.8-3.5-5.4-7.2-7.7-11.1c-1.5-2.6-2.8-5.4-3.9-8.2c-0.3-1-0.6-1.9-0.8-2.4c-0.1-0.3-0.2-0.6-0.2-0.8
	l1.2,3.1c1.2,2.8,2.5,5.5,4.1,8.1c2.3,3.8,4.9,7.5,7.8,10.9c3.2,3.9,6.9,8,10.8,12.5c6.8,7.4,12.6,15.6,17.2,24.6
	c1.3,2.7,2.4,5.6,3.1,8.6c0.2,0.8,0.3,1.6,0.4,2.4C1062.5,556,1062.5,556.3,1062.4,556.5L1062.4,556.5z"/>
<path class="st4" d="M1100.8,513.2c-0.6,0.4-1.3,0.8-2,1.1c-1.8,1-3.6,2.2-5.2,3.4c-2.5,1.9-4.8,4-6.9,6.3c-2.4,2.5-4.9,5.5-7.5,8.6
	c-5,6.3-9.8,12-12.6,16.4c-1.4,2.2-2.5,4.1-3.2,5.4c-0.3,0.7-0.7,1.4-1.1,2c0-0.2,0.1-0.4,0.2-0.6c0.1-0.4,0.4-0.9,0.7-1.6
	c0.9-1.9,1.9-3.8,3-5.6c3.8-5.8,8-11.3,12.5-16.6c2.5-3.2,5-6.1,7.5-8.7c2.2-2.2,4.5-4.3,7-6.2c1.7-1.2,3.5-2.3,5.4-3.3
	c0.7-0.3,1.2-0.5,1.6-0.7C1100.3,513.3,1100.5,513.2,1100.8,513.2z"/>
<path class="st4" d="M1101.6,527.3c-1.4,0.3-2.8,0.5-4.2,0.6c-3.4,0.4-6.8,1-10.1,2c-3.2,1.1-6.3,2.7-9,4.7
	c-2.1,1.6-3.1,2.9-3.2,2.9c-0.1-0.1,0.2-0.4,0.6-1c0.7-0.8,1.4-1.6,2.2-2.3c2.7-2.2,5.8-3.9,9.1-5c3.3-1,6.8-1.6,10.2-1.9
	C1098.8,527.2,1100.2,527.2,1101.6,527.3L1101.6,527.3z"/>
<path class="st4" d="M1076.3,535.9c-0.2-0.1,1.7-3,3.2-7s1.7-7.5,2-7.5c0.1,0.8,0.1,1.5,0,2.3c-0.2,1.8-0.6,3.6-1.2,5.4
	c-0.6,1.7-1.5,3.4-2.5,4.9C1077.4,534.7,1076.9,535.4,1076.3,535.9L1076.3,535.9z"/>
<path class="st4" d="M1113.2,475.5c-0.2,0.2-0.4,0.3-0.7,0.4l-2,0.9c-0.9,0.4-1.9,0.8-3.1,1.5s-2.6,1.3-4.1,2.1l-2.3,1.3
	c-0.8,0.5-1.6,1-2.5,1.5c-1.7,1-3.4,2.3-5.2,3.6c-7.8,5.8-14.6,12.9-20.2,20.9c-1.2,1.9-2.5,3.6-3.4,5.4c-0.5,0.9-1,1.7-1.5,2.5
	l-1.2,2.4c-0.8,1.5-1.4,2.9-2,4.1c-0.6,1.2-1,2.3-1.4,3.2l-0.8,2c-0.1,0.2-0.2,0.5-0.3,0.7c0-0.2,0.1-0.5,0.2-0.7
	c0.2-0.5,0.4-1.2,0.7-2.1c0.4-1.1,0.8-2.2,1.3-3.2c0.6-1.2,1.1-2.7,1.9-4.2c0.4-0.8,0.8-1.5,1.2-2.4c0.4-0.8,0.9-1.6,1.4-2.5
	c1-1.8,2.2-3.6,3.4-5.4c5.6-8.1,12.4-15.2,20.4-21c1.9-1.3,3.6-2.6,5.3-3.6c0.8-0.5,1.7-1.1,2.5-1.5l2.3-1.3
	c1.5-0.9,2.9-1.5,4.1-2.1c1.2-0.6,2.3-1,3.2-1.4l2.1-0.8C1112.7,475.5,1112.9,475.5,1113.2,475.5z"/>
<path class="st4" d="M1082.9,495.8c0.3-1,0.9-1.8,1.7-2.5c1.9-1.6,4.2-2.5,6.7-2.6c2.4,0,4.8,0.5,7.1,1.4c1,0.3,1.8,0.7,2.7,1.3
	c-1-0.2-1.9-0.5-2.8-0.8c-2.2-0.8-4.6-1.1-6.9-1.1c-2.3,0-4.6,0.8-6.4,2.2C1084.2,494.4,1083.5,495.1,1082.9,495.8L1082.9,495.8z"/>
<path class="st4" d="M1078.3,500.5c2-3.9,2.5-8.4,1.4-12.7c0.4,0.6,0.7,1.2,0.8,1.9c0.4,1.6,0.5,3.2,0.3,4.8
	c-0.2,1.6-0.7,3.1-1.4,4.5C1078.9,500,1078.4,500.6,1078.3,500.5z"/>
<path class="st5" d="M1028.9,563.5c1,18.6,6.7,37.4,15.2,56.5h37.4c8.2-18.9,13.4-37.7,14.3-56.5H1028.9z"/>
<path class="st7" d="M1089.8,593.5c0,0.2-12.3,0.4-27.5,0.4c-15.2,0-27.5-0.2-27.5-0.4s12.3-0.3,27.5-0.3
	C1077.5,593.2,1089.8,593.3,1089.8,593.5z"/>
<path class="st7" d="M1089,600.3c0,0.2-11.6,0.4-25.8,0.4s-25.8-0.2-25.8-0.4s11.5-0.4,25.8-0.4S1089,600.1,1089,600.3z"/>
<path class="st7" d="M1044.7,575.7c0.5,5.7,0.5,11.5,0,17.2C1044.3,587.2,1044.3,581.4,1044.7,575.7z"/>
<path class="st7" d="M1064.8,575.7c0.5,5.9,0.5,11.9,0,17.8C1064.3,587.6,1064.3,581.6,1064.8,575.7L1064.8,575.7z"/>
<path class="st7" d="M1083.6,575.5c0.5,6.1,0.5,12.1,0,18.2C1083.1,587.7,1083.1,581.6,1083.6,575.5L1083.6,575.5z"/>
<path class="st7" d="M1094.7,575.7c0,0.2-14.5,0.4-32.3,0.4c-17.8,0-32.3-0.2-32.3-0.4c0-0.2,14.4-0.3,32.3-0.3
	S1094.7,575.5,1094.7,575.7z"/>
<path class="st8" d="M977.8,191.1H279.7c-9.5,0-17.2,7.7-17.2,17.2v519.6c0,9.5,7.7,17.2,17.2,17.2h698.2c9.5,0,17.2-7.7,17.2-17.2
	V208.3C995,198.8,987.3,191.1,977.8,191.1z"/>
<path class="st9" d="M977.8,191.1H279.7c-9.5,0-17.2,7.7-17.2,17.2v519.6c0,9.5,7.7,17.2,17.2,17.2h698.2c9.5,0,17.2-7.7,17.2-17.2
	V208.3C995,198.8,987.3,191.1,977.8,191.1z"/>
<path class="st7" d="M969.6,191.1H271.4c-9.5,0-17.2,7.7-17.2,17.2v519.6c0,9.5,7.7,17.2,17.2,17.2h698.2c9.5,0,17.2-7.7,17.2-17.2
	V208.3C986.8,198.8,979.1,191.1,969.6,191.1z"/>
<path class="st8" d="M271.4,191.1h39.9v554h-39.9c-4.6,0-8.9-1.8-12.1-5c-3.2-3.2-5-7.6-5-12.1V208.3c0-4.6,1.8-8.9,5-12.1
	C262.5,192.9,266.9,191.1,271.4,191.1z"/>
<path class="st7" d="M294.6,213.7h-23.6c-1.9,0-3.4,1.5-3.4,3.4c0,1.9,1.5,3.4,3.4,3.4h23.6c1.9,0,3.4-1.5,3.4-3.4
	C297.9,215.2,296.4,213.7,294.6,213.7z"/>
<path class="st8" d="M289,261.4h-12.4c-1.6,0-2.9,1.3-2.9,2.9v12.4c0,1.6,1.3,2.9,2.9,2.9H289c1.6,0,2.9-1.3,2.9-2.9v-12.4
	C291.9,262.8,290.6,261.4,289,261.4z"/>
<path class="st10" d="M289,261.4h-12.4c-1.6,0-2.9,1.3-2.9,2.9v12.4c0,1.6,1.3,2.9,2.9,2.9H289c1.6,0,2.9-1.3,2.9-2.9v-12.4
	C291.9,262.8,290.6,261.4,289,261.4z"/>
<path class="st8" d="M289,320.8h-12.4c-1.6,0-2.9,1.3-2.9,2.9v12.4c0,1.6,1.3,2.9,2.9,2.9H289c1.6,0,2.9-1.3,2.9-2.9v-12.4
	C291.9,322.1,290.6,320.8,289,320.8z"/>
<path class="st10" d="M289,320.8h-12.4c-1.6,0-2.9,1.3-2.9,2.9v12.4c0,1.6,1.3,2.9,2.9,2.9H289c1.6,0,2.9-1.3,2.9-2.9v-12.4
	C291.9,322.1,290.6,320.8,289,320.8z"/>
<path class="st8" d="M289,380.1h-12.4c-1.6,0-2.9,1.3-2.9,2.9v12.4c0,1.6,1.3,2.9,2.9,2.9H289c1.6,0,2.9-1.3,2.9-2.9V383
	C291.9,381.4,290.6,380.1,289,380.1z"/>
<path class="st10" d="M289,380.1h-12.4c-1.6,0-2.9,1.3-2.9,2.9v12.4c0,1.6,1.3,2.9,2.9,2.9H289c1.6,0,2.9-1.3,2.9-2.9V383
	C291.9,381.4,290.6,380.1,289,380.1z"/>
<path class="st8" d="M289,439.4h-12.4c-1.6,0-2.9,1.3-2.9,2.9v12.4c0,1.6,1.3,2.9,2.9,2.9H289c1.6,0,2.9-1.3,2.9-2.9v-12.4
	C291.9,440.7,290.6,439.4,289,439.4z"/>
<path class="st10" d="M289,439.4h-12.4c-1.6,0-2.9,1.3-2.9,2.9v12.4c0,1.6,1.3,2.9,2.9,2.9H289c1.6,0,2.9-1.3,2.9-2.9v-12.4
	C291.9,440.7,290.6,439.4,289,439.4z"/>
<path class="st7" d="M282.5,708h-6c-1,0-2-0.4-2.8-1.2c-0.7-0.7-1.1-1.7-1.1-2.8v-12.4c0-1,0.4-2,1.1-2.8c0.7-0.7,1.7-1.2,2.8-1.2h6
	c0.3,0,0.5,0.1,0.7,0.3c0.2,0.2,0.3,0.4,0.3,0.7c0,0.3-0.1,0.5-0.3,0.7c-0.2,0.2-0.4,0.3-0.7,0.3h-6c-0.5,0-1,0.2-1.4,0.6
	c-0.4,0.4-0.6,0.9-0.6,1.4v12.4c0,0.5,0.2,1,0.6,1.4c0.4,0.4,0.8,0.6,1.4,0.6h6c0.3,0,0.5,0.1,0.7,0.3c0.2,0.2,0.3,0.4,0.3,0.7
	c0,0.3-0.1,0.5-0.3,0.7C283,707.9,282.8,708,282.5,708z"/>
<path class="st7" d="M288.2,698C288.2,698,288.2,697.9,288.2,698c0-0.1,0-0.2,0-0.2c0-0.1,0-0.1,0-0.2c0,0,0-0.1,0-0.1l-0.1-0.1
	c0,0,0-0.1,0-0.1l-2-3.1c-0.1-0.2-0.4-0.4-0.6-0.4c-0.3-0.1-0.5,0-0.8,0.1c-0.1,0.1-0.2,0.2-0.3,0.3c-0.1,0.1-0.1,0.2-0.2,0.4
	c0,0.1,0,0.3,0,0.4c0,0.1,0.1,0.3,0.1,0.4l1,1.5h-7.3c-0.3,0-0.5,0.1-0.7,0.3c-0.2,0.2-0.3,0.4-0.3,0.7s0.1,0.5,0.3,0.7
	c0.2,0.2,0.4,0.3,0.7,0.3h7.5l-1,2c-0.1,0.1-0.1,0.2-0.1,0.4c0,0.1,0,0.3,0.1,0.4c0,0.1,0.1,0.2,0.2,0.3c0.1,0.1,0.2,0.2,0.3,0.2
	c0.1,0.1,0.3,0.1,0.4,0.1c0.2,0,0.4-0.1,0.5-0.2s0.3-0.2,0.4-0.4l1.7-3.4c0,0,0-0.1,0-0.1C288.2,698.1,288.2,698.1,288.2,698
	L288.2,698z"/>
<path class="st8" d="M953.7,261.2H808.4c-2.6,0-4.7,2.1-4.7,4.6v52.6c0,2.6,2.1,4.6,4.7,4.6h145.3c2.6,0,4.6-2.1,4.6-4.6v-52.6
	C958.4,263.3,956.3,261.2,953.7,261.2z"/>
<path class="st11" d="M953.7,261.2H808.4c-2.6,0-4.7,2.1-4.7,4.6v52.6c0,2.6,2.1,4.6,4.7,4.6h145.3c2.6,0,4.6-2.1,4.6-4.6v-52.6
	C958.4,263.3,956.3,261.2,953.7,261.2z"/>
<path class="st7" d="M913.9,312.2c10.7,0,19.3-8.6,19.3-19.3s-8.6-19.3-19.3-19.3s-19.3,8.6-19.3,19.3S903.2,312.2,913.9,312.2z"/>
<path class="st8" d="M913.9,292.9c-1.4,0-2.8-0.5-3.9-1.5c-1.1-1-1.7-2.3-1.8-3.7l-0.4-4.1c-0.1-0.8,0-1.6,0.3-2.4
	c0.2-0.8,0.7-1.5,1.2-2c0.5-0.6,1.2-1.1,1.9-1.4c0.7-0.3,1.5-0.5,2.3-0.5h0.8c0.8,0,1.6,0.2,2.3,0.5c0.7,0.3,1.4,0.8,1.9,1.4
	c0.5,0.6,0.9,1.3,1.2,2c0.2,0.8,0.3,1.6,0.3,2.4l-0.4,4.1c-0.1,1.4-0.8,2.7-1.8,3.7C916.7,292.3,915.3,292.9,913.9,292.9
	L913.9,292.9z"/>
<path class="st12" d="M913.9,292.9c-1.4,0-2.8-0.5-3.9-1.5c-1.1-1-1.7-2.3-1.8-3.7l-0.4-4.1c-0.1-0.8,0-1.6,0.3-2.4
	c0.2-0.8,0.7-1.5,1.2-2c0.5-0.6,1.2-1.1,1.9-1.4c0.7-0.3,1.5-0.5,2.3-0.5h0.8c0.8,0,1.6,0.2,2.3,0.5c0.7,0.3,1.4,0.8,1.9,1.4
	c0.5,0.6,0.9,1.3,1.2,2c0.2,0.8,0.3,1.6,0.3,2.4l-0.4,4.1c-0.1,1.4-0.8,2.7-1.8,3.7C916.7,292.3,915.3,292.9,913.9,292.9
	L913.9,292.9z"/>
<path class="st8" d="M930.7,302.9c-0.8,1.3-1.7,2.4-2.8,3.5c-2.1,2.1-4.7,3.7-7.5,4.7c-2.8,1-5.8,1.3-8.8,1c-3-0.3-5.8-1.3-8.3-2.9
	c-2.5-1.6-4.7-3.7-6.2-6.3c0.5-2.2,1.7-4.2,3.5-5.6s3.9-2.2,6.2-2.2h14.4c2.2,0,4.4,0.8,6.2,2.2C929,298.7,930.2,300.7,930.7,302.9
	L930.7,302.9z"/>
<path class="st12" d="M930.7,302.9c-0.8,1.3-1.7,2.4-2.8,3.5c-2.1,2.1-4.7,3.7-7.5,4.7c-2.8,1-5.8,1.3-8.8,1c-3-0.3-5.8-1.3-8.3-2.9
	c-2.5-1.6-4.7-3.7-6.2-6.3c0.5-2.2,1.7-4.2,3.5-5.6s3.9-2.2,6.2-2.2h14.4c2.2,0,4.4,0.8,6.2,2.2C929,298.7,930.2,300.7,930.7,302.9
	L930.7,302.9z"/>
<path class="st5" d="M855.3,292.7h-34.9c-0.7,0-1.3,0.6-1.3,1.3v2c0,0.7,0.6,1.3,1.3,1.3h34.9c0.7,0,1.3-0.6,1.3-1.3v-2
	C856.6,293.2,856,292.7,855.3,292.7z"/>
<path class="st13" d="M863.8,280H823c-2.1,0-3.8,1.7-3.8,3.9c0,2.1,1.7,3.9,3.8,3.9h40.8c2.1,0,3.9-1.7,3.9-3.9
	C867.6,281.7,865.9,280,863.8,280z"/>
<path class="st2" d="M860.7,223.1h-76.5c-6.4,0-11.6,5.2-11.6,11.6v0c0,6.4,5.2,11.6,11.6,11.6h76.5c6.4,0,11.6-5.2,11.6-11.6v0
	C872.3,228.3,867.1,223.1,860.7,223.1z"/>
<path class="st5" d="M860.4,238.2l-1.9-1.9c0.5-0.7,0.8-1.6,0.7-2.4c0-0.9-0.4-1.7-0.9-2.3c-0.6-0.7-1.3-1.1-2.2-1.3
	c-0.8-0.2-1.7,0-2.5,0.4c-0.8,0.4-1.4,1-1.7,1.8c-0.4,0.8-0.5,1.7-0.2,2.5c0.2,0.8,0.7,1.6,1.4,2.1c0.7,0.5,1.5,0.8,2.4,0.8
	c0.8,0,1.6-0.3,2.2-0.7l1.9,1.9c0,0.1,0.1,0.1,0.2,0.1c0.1,0,0.1,0,0.2,0c0.2,0,0.3-0.1,0.5-0.2c0.1-0.1,0.2-0.3,0.2-0.4
	C860.6,238.5,860.5,238.3,860.4,238.2L860.4,238.2z M853.5,235.9c-0.4-0.4-0.6-0.8-0.7-1.3c-0.1-0.5,0-1,0.2-1.5
	c0.2-0.5,0.5-0.9,1-1.2c0.4-0.3,0.9-0.4,1.4-0.4c0.4,0,0.8,0.1,1.2,0.3c0.4,0.2,0.7,0.5,0.9,0.8c0.2,0.4,0.4,0.8,0.4,1.2
	c0,0.4,0,0.9-0.2,1.3c-0.2,0.4-0.4,0.7-0.8,1c-0.3,0.3-0.7,0.5-1.1,0.5c-0.4,0.1-0.9,0.1-1.3-0.1
	C854.2,236.4,853.8,236.2,853.5,235.9L853.5,235.9z"/>
<path class="st2" d="M912.9,223.1H895c-1.5,0-2.7,1.2-2.7,2.7v17.9c0,1.5,1.2,2.7,2.7,2.7h17.9c1.5,0,2.7-1.2,2.7-2.7v-17.9
	C915.6,224.3,914.4,223.1,912.9,223.1z"/>
<path class="st2" d="M956.1,223.1h-17.9c-1.5,0-2.7,1.2-2.7,2.7v17.9c0,1.5,1.2,2.7,2.7,2.7h17.9c1.5,0,2.7-1.2,2.7-2.7v-17.9
	C958.8,224.3,957.6,223.1,956.1,223.1z"/>
<path class="st14" d="M410.9,228.9h-68.7c-3.2,0-5.8,2.6-5.8,5.8c0,3.2,2.6,5.8,5.8,5.8h68.7c3.2,0,5.8-2.6,5.8-5.8
	C416.7,231.5,414.1,228.9,410.9,228.9z"/>
<path class="st8" d="M521.4,352.7H341.1c-2.6,0-4.6,2.1-4.6,4.6v93c0,2.6,2.1,4.6,4.6,4.6h180.3c2.6,0,4.6-2.1,4.6-4.6v-93
	C526,354.8,524,352.7,521.4,352.7z"/>
<path class="st8" d="M521.4,352.7H341.1c-2.6,0-4.6,2.1-4.6,4.6v93c0,2.6,2.1,4.6,4.6,4.6h180.3c2.6,0,4.6-2.1,4.6-4.6v-93
	C526,354.8,524,352.7,521.4,352.7z"/>
<path class="st7" d="M497.7,383.5c6.2,0,11.1-5,11.1-11.1c0-6.2-5-11.2-11.1-11.2c-6.2,0-11.2,5-11.2,11.2
	C486.5,378.5,491.5,383.5,497.7,383.5z"/>
<path class="st8" d="M483.3,383.5c6.2,0,11.1-5,11.1-11.1c0-6.2-5-11.2-11.1-11.2c-6.2,0-11.2,5-11.2,11.2
	C472.1,378.5,477.1,383.5,483.3,383.5z"/>
<path class="st12" d="M483.3,383.5c6.2,0,11.1-5,11.1-11.1c0-6.2-5-11.2-11.1-11.2c-6.2,0-11.2,5-11.2,11.2
	C472.1,378.5,477.1,383.5,483.3,383.5z"/>
<path class="st7" d="M381.8,391.5h-21.3c-3.6,0-6.5,2.9-6.5,6.5v12.1c0,3.6,2.9,6.5,6.5,6.5h21.3c3.6,0,6.5-2.9,6.5-6.5V398
	C388.3,394.4,385.4,391.5,381.8,391.5z"/>
<path class="st8" d="M402.8,369.6h-46.1c-1.5,0-2.7,1.2-2.7,2.7c0,1.5,1.2,2.7,2.7,2.7h46.1c1.5,0,2.7-1.2,2.7-2.7
	C405.6,370.8,404.3,369.6,402.8,369.6z"/>
<path class="st8" d="M376.9,429h-17c-3.3,0-5.9,2.6-5.9,5.9c0,3.3,2.6,5.9,5.9,5.9h17c3.3,0,5.9-2.6,5.9-5.9
	C382.8,431.7,380.1,429,376.9,429z"/>
<path class="st8" d="M413.5,429h-17c-3.3,0-5.9,2.6-5.9,5.9c0,3.3,2.6,5.9,5.9,5.9h17c3.3,0,5.9-2.6,5.9-5.9
	C419.4,431.7,416.8,429,413.5,429z"/>
<path class="st8" d="M450.2,429h-17c-3.3,0-5.9,2.6-5.9,5.9c0,3.3,2.6,5.9,5.9,5.9h17c3.3,0,5.9-2.6,5.9-5.9
	C456.1,431.7,453.5,429,450.2,429z"/>
<path class="st8" d="M486.9,429h-17c-3.3,0-5.9,2.6-5.9,5.9c0,3.3,2.6,5.9,5.9,5.9h17c3.3,0,5.9-2.6,5.9-5.9
	C492.8,431.7,490.2,429,486.9,429z"/>
<path class="st12" d="M402.8,369.6h-46.1c-1.5,0-2.7,1.2-2.7,2.7c0,1.5,1.2,2.7,2.7,2.7h46.1c1.5,0,2.7-1.2,2.7-2.7
	C405.6,370.8,404.3,369.6,402.8,369.6z"/>
<path class="st12" d="M376.9,429h-17c-3.3,0-5.9,2.6-5.9,5.9c0,3.3,2.6,5.9,5.9,5.9h17c3.3,0,5.9-2.6,5.9-5.9
	C382.8,431.7,380.1,429,376.9,429z"/>
<path class="st12" d="M413.5,429h-17c-3.3,0-5.9,2.6-5.9,5.9c0,3.3,2.6,5.9,5.9,5.9h17c3.3,0,5.9-2.6,5.9-5.9
	C419.4,431.7,416.8,429,413.5,429z"/>
<path class="st12" d="M450.2,429h-17c-3.3,0-5.9,2.6-5.9,5.9c0,3.3,2.6,5.9,5.9,5.9h17c3.3,0,5.9-2.6,5.9-5.9
	C456.1,431.7,453.5,429,450.2,429z"/>
<path class="st12" d="M486.9,429h-17c-3.3,0-5.9,2.6-5.9,5.9c0,3.3,2.6,5.9,5.9,5.9h17c3.3,0,5.9-2.6,5.9-5.9
	C492.8,431.7,490.2,429,486.9,429z"/>
<path class="st2" d="M521.4,479.3H341.1c-2.6,0-4.6,2.1-4.6,4.7v93c0,2.6,2.1,4.7,4.6,4.7h180.3c2.6,0,4.6-2.1,4.6-4.7v-93
	C526,481.4,524,479.3,521.4,479.3z"/>
<path class="st15" d="M504.4,491.4h-23.3c-2.4,0-4.3,1.9-4.3,4.3v6.3c0,2.4,1.9,4.3,4.3,4.3h23.3c2.4,0,4.3-1.9,4.3-4.3v-6.3
	C508.7,493.3,506.8,491.4,504.4,491.4z"/>
<path class="st7" d="M381.8,518h-21.3c-3.6,0-6.5,2.9-6.5,6.5v12.1c0,3.6,2.9,6.5,6.5,6.5h21.3c3.6,0,6.5-2.9,6.5-6.5v-12.1
	C388.3,520.9,385.4,518,381.8,518z"/>
<path class="st15" d="M402.8,496.1h-46.1c-1.5,0-2.7,1.2-2.7,2.7c0,1.5,1.2,2.7,2.7,2.7h46.1c1.5,0,2.7-1.2,2.7-2.7
	C405.6,497.3,404.3,496.1,402.8,496.1z"/>
<path class="st15" d="M376.9,555.6h-17c-3.3,0-5.9,2.6-5.9,5.9c0,3.3,2.6,5.9,5.9,5.9h17c3.3,0,5.9-2.6,5.9-5.9
	C382.8,558.2,380.1,555.6,376.9,555.6z"/>
<path class="st15" d="M413.5,555.6h-17c-3.3,0-5.9,2.6-5.9,5.9c0,3.3,2.6,5.9,5.9,5.9h17c3.3,0,5.9-2.6,5.9-5.9
	C419.4,558.2,416.8,555.6,413.5,555.6z"/>
<path class="st15" d="M450.2,555.6h-17c-3.3,0-5.9,2.6-5.9,5.9c0,3.3,2.6,5.9,5.9,5.9h17c3.3,0,5.9-2.6,5.9-5.9
	C456.1,558.2,453.5,555.6,450.2,555.6z"/>
<path class="st15" d="M486.9,555.6h-17c-3.3,0-5.9,2.6-5.9,5.9c0,3.3,2.6,5.9,5.9,5.9h17c3.3,0,5.9-2.6,5.9-5.9
	C492.8,558.2,490.2,555.6,486.9,555.6z"/>
<path class="st6" d="M521.4,604.7H341.1c-2.6,0-4.6,2.1-4.6,4.6v93c0,2.6,2.1,4.6,4.6,4.6h180.3c2.6,0,4.6-2.1,4.6-4.6v-93
	C526,606.7,524,604.7,521.4,604.7z"/>
<path class="st14" d="M504.4,616.8h-23.3c-2.4,0-4.3,1.9-4.3,4.3v6.3c0,2.4,1.9,4.3,4.3,4.3h23.3c2.4,0,4.3-1.9,4.3-4.3v-6.3
	C508.7,618.7,506.8,616.8,504.4,616.8z"/>
<path class="st7" d="M381.8,643.4h-21.3c-3.6,0-6.5,2.9-6.5,6.5V662c0,3.6,2.9,6.5,6.5,6.5h21.3c3.6,0,6.5-2.9,6.5-6.5v-12.2
	C388.3,646.3,385.4,643.4,381.8,643.4z"/>
<path class="st14" d="M402.8,621.5h-46.1c-1.5,0-2.7,1.2-2.7,2.7s1.2,2.7,2.7,2.7h46.1c1.5,0,2.7-1.2,2.7-2.7
	S404.3,621.5,402.8,621.5z"/>
<path class="st14" d="M376.9,681h-17c-3.3,0-5.9,2.6-5.9,5.9c0,3.3,2.6,5.9,5.9,5.9h17c3.3,0,5.9-2.6,5.9-5.9
	C382.8,683.6,380.1,681,376.9,681z"/>
<path class="st14" d="M413.5,681h-17c-3.3,0-5.9,2.6-5.9,5.9c0,3.3,2.6,5.9,5.9,5.9h17c3.3,0,5.9-2.6,5.9-5.9
	C419.4,683.6,416.8,681,413.5,681z"/>
<path class="st14" d="M450.2,681h-17c-3.3,0-5.9,2.6-5.9,5.9c0,3.3,2.6,5.9,5.9,5.9h17c3.3,0,5.9-2.6,5.9-5.9
	C456.1,683.6,453.5,681,450.2,681z"/>
<path class="st14" d="M486.9,681h-17c-3.3,0-5.9,2.6-5.9,5.9c0,3.3,2.6,5.9,5.9,5.9h17c3.3,0,5.9-2.6,5.9-5.9
	C492.8,683.6,490.2,681,486.9,681z"/>
<path class="st8" d="M954.5,353H808.4c-2.6,0-4.7,2.1-4.7,4.6v137.7c0,2.6,2.1,4.6,4.7,4.6h146.1c2.6,0,4.7-2.1,4.7-4.6V357.7
	C959.2,355.1,957.1,353,954.5,353z"/>
<path class="st11" d="M954.5,353H808.4c-2.6,0-4.7,2.1-4.7,4.6v137.7c0,2.6,2.1,4.6,4.7,4.6h146.1c2.6,0,4.7-2.1,4.7-4.6V357.7
	C959.2,355.1,957.1,353,954.5,353z"/>
<g class="st16">
	<path class="st17" d="M952,425.3H811.8v0.5H952V425.3z"/>
</g>
<g class="st16">
	<path class="st17" d="M952.2,446.3H812v0.5h140.2V446.3z"/>
</g>
<g class="st16">
	<path class="st17" d="M952.4,467.2H811.8v0.5h140.6V467.2z"/>
</g>
<path class="st5" d="M948.3,366.6h-29.5c-1.1,0-2,0.9-2,2v3.2c0,1.1,0.9,2,2,2h29.5c1.1,0,2-0.9,2-2v-3.2
	C950.3,367.5,949.4,366.6,948.3,366.6z"/>
<path class="st5" d="M833.2,484.5h-12.9c-0.4,0-0.8,0.3-0.8,0.8v1.1c0,0.4,0.3,0.8,0.8,0.8h12.9c0.4,0,0.8-0.3,0.8-0.8v-1.1
	C834,484.9,833.6,484.5,833.2,484.5z"/>
<path class="st8" d="M851.1,484.5h-11.8c-0.7,0-1.3,0.6-1.3,1.3c0,0.7,0.6,1.3,1.3,1.3h11.8c0.7,0,1.3-0.6,1.3-1.3
	C852.4,485.1,851.8,484.5,851.1,484.5z"/>
<path class="st5" d="M899.3,484.5h-12.9c-0.4,0-0.8,0.3-0.8,0.8v1.1c0,0.4,0.3,0.8,0.8,0.8h12.9c0.4,0,0.8-0.3,0.8-0.8v-1.1
	C900.1,484.9,899.7,484.5,899.3,484.5z"/>
<path class="st8" d="M917.2,484.5h-11.8c-0.7,0-1.3,0.6-1.3,1.3c0,0.7,0.6,1.3,1.3,1.3h11.8c0.7,0,1.3-0.6,1.3-1.3
	C918.5,485.1,917.9,484.5,917.2,484.5z"/>
<path class="st18" d="M952.4,467.7H811.8l0.2-26.3c1.4-3.7,3.6-7.7,6.5-7.7c3.5,0,5.2,9.9,13.1,9.9c12.2,0,16-18.8,21.7-19.3
	c8.6-0.8,12.4,15.4,20.6,15.5c7.4,0.1,10.2-7.2,13.9-11.5c1.4-1.6,3.3-2.8,5.4-3.2c2.7-0.7,3.3,0.2,7.1-1.1c11.7-4,9-19.3,19.5-18
	c8.1,1,8.1,21.1,16.5,22.5c4.4,0.8,12-3.7,15.6-3.8L952.4,467.7z"/>
<path class="st8" d="M831.6,444.6c-5,0-7.5-3.7-9.6-6.7c-1.2-1.8-2.3-3.3-3.4-3.3c-2.1,0-4.1,2.5-6,7.4l-1-0.4
	c2.1-5.5,4.4-8.1,7-8.1c1.7,0,2.9,1.8,4.3,3.8c1.9,2.8,4.3,6.2,8.7,6.2c7,0,11.3-6.8,14.7-12.2c2.4-3.8,4.4-7.1,7-7.3
	c4.8-0.4,8,3.9,11.2,8.1c3,3.9,5.7,7.5,9.5,7.6c5.4,0.1,8.2-4,10.9-7.9c0.9-1.3,1.7-2.5,2.6-3.5c1.5-1.7,3.5-2.9,5.7-3.5
	c0.9-0.2,1.8-0.3,2.8-0.3c1.5,0,2.9-0.2,4.3-0.8c5.4-1.9,7.7-6.4,9.7-10.4c2.2-4.4,4.3-8.6,10.1-7.8c4.4,0.6,6.5,6.1,8.6,11.5
	c2,5.2,4,10.6,7.9,11.2c2.4,0.4,6.1-0.9,9.3-2.1c2-0.8,4-1.4,6.2-1.7v1.1c-2,0.3-4,0.9-5.8,1.7c-3.3,1.2-7.1,2.6-9.9,2.1
	c-4.5-0.8-6.7-6.5-8.8-11.9c-2-5.3-4-10.3-7.7-10.8c-5.1-0.7-6.8,2.8-9,7.2c-2.1,4.2-4.4,8.9-10.3,10.9c-1.5,0.6-3.1,0.8-4.7,0.8
	c-0.8,0-1.7,0.1-2.5,0.3c-2,0.5-3.8,1.6-5.1,3.1c-0.9,1.1-1.8,2.3-2.5,3.5c-2.7,4-5.9,8.5-11.8,8.4c-4.2-0.1-7.3-4.1-10.3-8
	c-3.1-4.1-6.1-8-10.2-7.7c-2,0.2-3.9,3.2-6.2,6.8C843.7,437.5,839.2,444.6,831.6,444.6L831.6,444.6z"/>
<path class="st19" d="M882,438.8c1.3,0,2.4-1.1,2.4-2.4s-1.1-2.4-2.4-2.4c-1.3,0-2.4,1.1-2.4,2.4S880.7,438.8,882,438.8z"/>
<path class="st13" d="M895.8,411.8h-28.3c-0.5,0-0.9,0.2-1.3,0.5c-0.3,0.3-0.5,0.8-0.5,1.3v13.7c0,0.5,0.2,0.9,0.5,1.3
	c0.3,0.3,0.8,0.5,1.3,0.5h12.7l1,1.7c0,0.1,0.1,0.2,0.2,0.2c0.1,0.1,0.2,0.1,0.3,0.1c0.1,0,0.2,0,0.3-0.1c0.1-0.1,0.2-0.1,0.2-0.2
	l1-1.7h12.7c0.5,0,0.9-0.2,1.2-0.5c0.3-0.3,0.5-0.8,0.5-1.3v-13.7c0-0.2-0.1-0.5-0.1-0.7c-0.1-0.2-0.2-0.4-0.4-0.6
	c-0.2-0.2-0.4-0.3-0.6-0.4C896.3,411.8,896,411.8,895.8,411.8L895.8,411.8z"/>
<path class="st8" d="M890.9,415.2h-18.5c-0.3,0-0.6,0.3-0.6,0.6v3c0,0.3,0.2,0.6,0.6,0.6h18.5c0.3,0,0.6-0.3,0.6-0.6v-3
	C891.5,415.4,891.2,415.2,890.9,415.2z"/>
<path class="st8" d="M886,422.6h-8.7c-0.3,0-0.6,0.3-0.6,0.6v1.2c0,0.3,0.2,0.6,0.6,0.6h8.7c0.3,0,0.6-0.3,0.6-0.6v-1.2
	C886.6,422.9,886.3,422.6,886,422.6z"/>
<path class="st20" d="M890.9,415.2h-18.5c-0.3,0-0.6,0.3-0.6,0.6v3c0,0.3,0.2,0.6,0.6,0.6h18.5c0.3,0,0.6-0.3,0.6-0.6v-3
	C891.5,415.4,891.2,415.2,890.9,415.2z"/>
<path class="st20" d="M886,422.6h-8.7c-0.3,0-0.6,0.3-0.6,0.6v1.2c0,0.3,0.2,0.6,0.6,0.6h8.7c0.3,0,0.6-0.3,0.6-0.6v-1.2
	C886.6,422.9,886.3,422.6,886,422.6z"/>
<g class="st16">
	<path class="st17" d="M952.1,404.3H811.8v0.5h140.3V404.3z"/>
</g>
<path class="st8" d="M955.5,523h-147c-2.6,0-4.7,2.1-4.7,4.7v173.8c0,2.6,2.1,4.7,4.7,4.7h147c2.6,0,4.7-2.1,4.7-4.7V527.7
	C960.1,525.1,958.1,523,955.5,523z"/>
<path class="st11" d="M955.5,523h-147c-2.6,0-4.7,2.1-4.7,4.7v173.8c0,2.6,2.1,4.7,4.7,4.7h147c2.6,0,4.7-2.1,4.7-4.7V527.7
	C960.1,525.1,958.1,523,955.5,523z"/>
<path class="st5" d="M879,535.1h-62.5c-1.1,0-2,0.9-2,2v7c0,1.1,0.9,2,2,2H879c1.1,0,2-0.9,2-2v-7C881.1,536,880.2,535.1,879,535.1z
	"/>
<path class="st8" d="M843.3,566.2h-27.4c-0.8,0-1.4,0.6-1.4,1.4v2c0,0.8,0.6,1.4,1.4,1.4h27.4c0.8,0,1.4-0.6,1.4-1.4v-2
	C844.6,566.8,844,566.2,843.3,566.2z"/>
<path class="st8" d="M937.6,575.8h-121c-1.1,0-2,0.9-2,2c0,1.1,0.9,2,2,2h121c1.1,0,2-0.9,2-2C939.6,576.7,938.7,575.8,937.6,575.8z
	"/>
<path class="st20" d="M937.6,575.8h-121c-1.1,0-2,0.9-2,2c0,1.1,0.9,2,2,2h121c1.1,0,2-0.9,2-2C939.6,576.7,938.7,575.8,937.6,575.8
	z"/>
<path class="st13" d="M855.8,575.8h-39.3c-1.1,0-2,0.9-2,2c0,1.1,0.9,2,2,2h39.3c1.1,0,2-0.9,2-2C857.9,576.7,857,575.8,855.8,575.8
	z"/>
<path class="st8" d="M843.3,608.1h-27.4c-0.8,0-1.4,0.6-1.4,1.4v1.9c0,0.8,0.6,1.4,1.4,1.4h27.4c0.8,0,1.4-0.6,1.4-1.4v-1.9
	C844.6,608.7,844,608.1,843.3,608.1z"/>
<path class="st8" d="M937.6,617.7h-121c-1.1,0-2,0.9-2,2c0,1.1,0.9,2,2,2h121c1.1,0,2-0.9,2-2C939.6,618.6,938.7,617.7,937.6,617.7z
	"/>
<path class="st20" d="M937.6,617.7h-121c-1.1,0-2,0.9-2,2c0,1.1,0.9,2,2,2h121c1.1,0,2-0.9,2-2C939.6,618.6,938.7,617.7,937.6,617.7
	z"/>
<path class="st13" d="M896.8,617.7h-80.3c-1.1,0-2,0.9-2,2c0,1.1,0.9,2,2,2h80.3c1.1,0,2-0.9,2-2
	C898.9,618.6,897.9,617.7,896.8,617.7z"/>
<path class="st8" d="M843.3,650h-27.4c-0.8,0-1.4,0.6-1.4,1.4v2c0,0.8,0.6,1.4,1.4,1.4h27.4c0.8,0,1.4-0.6,1.4-1.4v-2
	C844.6,650.6,844,650,843.3,650z"/>
<path class="st8" d="M937.6,659.6h-121c-1.1,0-2,0.9-2,2c0,1.1,0.9,2,2,2h121c1.1,0,2-0.9,2-2C939.6,660.5,938.7,659.6,937.6,659.6z
	"/>
<path class="st20" d="M937.6,659.6h-121c-1.1,0-2,0.9-2,2c0,1.1,0.9,2,2,2h121c1.1,0,2-0.9,2-2C939.6,660.5,938.7,659.6,937.6,659.6
	z"/>
<path class="st13" d="M873.7,659.6h-57.1c-1.1,0-2,0.9-2,2c0,1.1,0.9,2,2,2h57.1c1.1,0,2-0.9,2-2
	C875.7,660.5,874.8,659.6,873.7,659.6z"/>
<path class="st8" d="M775.4,261.4H344.5c-4.4,0-7.9,3.5-7.9,7.9v46c0,4.4,3.5,7.9,7.9,7.9h430.9c4.4,0,7.9-3.5,7.9-7.9v-46
	C783.3,264.9,779.8,261.4,775.4,261.4z"/>
<path class="st11" d="M775.4,261.4H344.5c-4.4,0-7.9,3.5-7.9,7.9v46c0,4.4,3.5,7.9,7.9,7.9h430.9c4.4,0,7.9-3.5,7.9-7.9v-46
	C783.3,264.9,779.8,261.4,775.4,261.4z"/>
<path class="st5" d="M364.7,296.5c6.3,0,11.5-5.1,11.5-11.5c0-6.3-5.1-11.5-11.5-11.5c-6.3,0-11.5,5.1-11.5,11.5
	C353.3,291.4,358.4,296.5,364.7,296.5z"/>
<path class="st8" d="M372.3,305.4h-15.1c-1.4,0-2.5,1.1-2.5,2.5c0,1.4,1.1,2.5,2.5,2.5h15.1c1.4,0,2.5-1.1,2.5-2.5
	C374.8,306.5,373.6,305.4,372.3,305.4z"/>
<path class="st5" d="M429.7,296.5c6.3,0,11.5-5.1,11.5-11.5c0-6.3-5.1-11.5-11.5-11.5c-6.3,0-11.5,5.1-11.5,11.5
	C418.2,291.4,423.3,296.5,429.7,296.5z"/>
<path class="st8" d="M437.2,305.4h-15c-1.4,0-2.5,1.1-2.5,2.5c0,1.4,1.1,2.5,2.5,2.5h15c1.4,0,2.5-1.1,2.5-2.5
	C439.7,306.5,438.6,305.4,437.2,305.4z"/>
<path class="st5" d="M494.6,296.5c6.3,0,11.5-5.1,11.5-11.5c0-6.3-5.1-11.5-11.5-11.5c-6.3,0-11.5,5.1-11.5,11.5
	C483.1,291.4,488.3,296.5,494.6,296.5z"/>
<path class="st8" d="M502.1,305.4h-15c-1.4,0-2.5,1.1-2.5,2.5c0,1.4,1.1,2.5,2.5,2.5h15c1.4,0,2.5-1.1,2.5-2.5
	C504.6,306.5,503.5,305.4,502.1,305.4z"/>
<path class="st5" d="M559.5,296.5c6.3,0,11.5-5.1,11.5-11.5c0-6.3-5.1-11.5-11.5-11.5c-6.3,0-11.5,5.1-11.5,11.5
	C548.1,291.4,553.2,296.5,559.5,296.5z"/>
<path class="st8" d="M567.1,305.4h-15c-1.4,0-2.5,1.1-2.5,2.5c0,1.4,1.1,2.5,2.5,2.5h15c1.4,0,2.5-1.1,2.5-2.5
	C569.6,306.5,568.5,305.4,567.1,305.4z"/>
<path class="st5" d="M624.5,296.5c6.3,0,11.5-5.1,11.5-11.5c0-6.3-5.1-11.5-11.5-11.5c-6.3,0-11.5,5.1-11.5,11.5
	C613,291.4,618.1,296.5,624.5,296.5z"/>
<path class="st8" d="M632,305.4h-15c-1.4,0-2.5,1.1-2.5,2.5c0,1.4,1.1,2.5,2.5,2.5h15c1.4,0,2.5-1.1,2.5-2.5
	C634.5,306.5,633.4,305.4,632,305.4z"/>
<path class="st5" d="M689.4,296.5c6.3,0,11.5-5.1,11.5-11.5c0-6.3-5.1-11.5-11.5-11.5c-6.3,0-11.5,5.1-11.5,11.5
	C677.9,291.4,683.1,296.5,689.4,296.5z"/>
<path class="st8" d="M696.9,305.4h-15c-1.4,0-2.5,1.1-2.5,2.5c0,1.4,1.1,2.5,2.5,2.5h15c1.4,0,2.5-1.1,2.5-2.5
	C699.4,306.5,698.3,305.4,696.9,305.4z"/>
<path class="st5" d="M754.3,296.5c6.3,0,11.5-5.1,11.5-11.5c0-6.3-5.1-11.5-11.5-11.5c-6.3,0-11.5,5.1-11.5,11.5
	C742.9,291.4,748,296.5,754.3,296.5z"/>
<path class="st8" d="M761.9,305.4h-15c-1.4,0-2.5,1.1-2.5,2.5c0,1.4,1.1,2.5,2.5,2.5h15c1.4,0,2.5-1.1,2.5-2.5
	C764.4,306.5,763.3,305.4,761.9,305.4z"/>
<path class="st8" d="M778.3,352.7l-231,0.4c-2.6,0-4.6,2.1-4.6,4.7l0.6,344c0,2.6,2.1,4.6,4.7,4.6l231-0.4c2.6,0,4.6-2.1,4.6-4.7
	l-0.6-344C783,354.7,780.9,352.7,778.3,352.7z"/>
<path class="st11" d="M778.3,352.7l-231,0.4c-2.6,0-4.6,2.1-4.6,4.7l0.6,344c0,2.6,2.1,4.6,4.7,4.6l231-0.4c2.6,0,4.6-2.1,4.6-4.7
	l-0.6-344C783,354.7,780.9,352.7,778.3,352.7z"/>
<path class="st8" d="M791.7,391H534.4c-2,0-3.6,1.6-3.6,3.6v37.9c0,2,1.6,3.6,3.6,3.6h257.3c2,0,3.6-1.6,3.6-3.6v-37.9
	C795.3,392.6,793.7,391,791.7,391z"/>
<path class="st21" d="M791.7,391H534.4c-2,0-3.6,1.6-3.6,3.6v37.9c0,2,1.6,3.6,3.6,3.6h257.3c2,0,3.6-1.6,3.6-3.6v-37.9
	C795.3,392.6,793.7,391,791.7,391z"/>
<path class="st5" d="M754.4,405.9h-32.8c-1.7,0-3.1,1.4-3.1,3.1v0.6c0,1.7,1.4,3.1,3.1,3.1h32.8c1.7,0,3.1-1.4,3.1-3.1v-0.6
	C757.5,407.3,756.1,405.9,754.4,405.9z"/>
<path class="st5" d="M745.8,448h-29.2c-1.7,0-3.1,1.4-3.1,3.1v0c0,1.7,1.4,3.1,3.1,3.1h29.2c1.7,0,3.1-1.4,3.1-3.1v0
	C748.9,449.4,747.5,448,745.8,448z"/>
<path class="st5" d="M745.8,489.9h-29.2c-1.7,0-3.1,1.4-3.1,3.1v0c0,1.7,1.4,3.1,3.1,3.1h29.2c1.7,0,3.1-1.4,3.1-3.1v0
	C748.9,491.2,747.5,489.9,745.8,489.9z"/>
<path class="st5" d="M745.8,531.8h-29.2c-1.7,0-3.1,1.4-3.1,3.1v0c0,1.7,1.4,3.1,3.1,3.1h29.2c1.7,0,3.1-1.4,3.1-3.1v0
	C748.9,533.1,747.5,531.8,745.8,531.8z"/>
<path class="st5" d="M745.8,572.7h-29.2c-1.7,0-3.1,1.4-3.1,3.1v0c0,1.7,1.4,3.1,3.1,3.1h29.2c1.7,0,3.1-1.4,3.1-3.1v0
	C748.9,574,747.5,572.7,745.8,572.7z"/>
<path class="st5" d="M745.8,614.6h-29.2c-1.7,0-3.1,1.4-3.1,3.1v0c0,1.7,1.4,3.1,3.1,3.1h29.2c1.7,0,3.1-1.4,3.1-3.1v0
	C748.9,615.9,747.5,614.6,745.8,614.6z"/>
<path class="st5" d="M745.8,656.5h-29.2c-1.7,0-3.1,1.4-3.1,3.1v0c0,1.7,1.4,3.1,3.1,3.1h29.2c1.7,0,3.1-1.4,3.1-3.1v0
	C748.9,657.8,747.5,656.5,745.8,656.5z"/>
<path class="st8" d="M656.2,405.9h-61.6c-1.1,0-2,0.9-2,2v1.6c0,1.1,0.9,2,2,2h61.6c1.1,0,2-0.9,2-2v-1.6
	C658.2,406.8,657.3,405.9,656.2,405.9z"/>
<path class="st22" d="M656.2,405.9h-61.6c-1.1,0-2,0.9-2,2v1.6c0,1.1,0.9,2,2,2h61.6c1.1,0,2-0.9,2-2v-1.6
	C658.2,406.8,657.3,405.9,656.2,405.9z"/>
<path class="st8" d="M657.3,448.5h-55.6c-1.1,0-2,0.9-2,2v1.1c0,1.1,0.9,2,2,2h55.6c1.1,0,2-0.9,2-2v-1.1
	C659.3,449.4,658.4,448.5,657.3,448.5z"/>
<path class="st12" d="M657.3,448.5h-55.6c-1.1,0-2,0.9-2,2v1.1c0,1.1,0.9,2,2,2h55.6c1.1,0,2-0.9,2-2v-1.1
	C659.3,449.4,658.4,448.5,657.3,448.5z"/>
<path class="st8" d="M631.2,461.3h-29.5c-1.1,0-2,0.9-2,2v1.1c0,1.1,0.9,2,2,2h29.5c1.1,0,2-0.9,2-2v-1.1
	C633.2,462.2,632.3,461.3,631.2,461.3z"/>
<path class="st12" d="M631.2,461.3h-29.5c-1.1,0-2,0.9-2,2v1.1c0,1.1,0.9,2,2,2h29.5c1.1,0,2-0.9,2-2v-1.1
	C633.2,462.2,632.3,461.3,631.2,461.3z"/>
<path class="st8" d="M627.5,420h-32.9c-1.1,0-2,0.9-2,2v1.6c0,1.1,0.9,2,2,2h32.9c1.1,0,2-0.9,2-2V422
	C629.5,420.9,628.6,420,627.5,420z"/>
<path class="st8" d="M667.6,490.4h-65.4c-1.1,0-2,0.9-2,2v1.1c0,1.1,0.9,2,2,2h65.4c1.1,0,2-0.9,2-2v-1.1
	C669.7,491.3,668.8,490.4,667.6,490.4z"/>
<path class="st12" d="M667.6,490.4h-65.4c-1.1,0-2,0.9-2,2v1.1c0,1.1,0.9,2,2,2h65.4c1.1,0,2-0.9,2-2v-1.1
	C669.7,491.3,668.8,490.4,667.6,490.4z"/>
<path class="st8" d="M631.8,503.2h-29.5c-1.1,0-2,0.9-2,2v1.1c0,1.1,0.9,2,2,2h29.5c1.1,0,2-0.9,2-2v-1.1
	C633.8,504.1,632.9,503.2,631.8,503.2z"/>
<path class="st12" d="M631.8,503.2h-29.5c-1.1,0-2,0.9-2,2v1.1c0,1.1,0.9,2,2,2h29.5c1.1,0,2-0.9,2-2v-1.1
	C633.8,504.1,632.9,503.2,631.8,503.2z"/>
<path class="st8" d="M633.9,532h-31.6c-1.1,0-2,0.9-2,2v1.1c0,1.1,0.9,2,2,2h31.6c1.1,0,2-0.9,2-2V534
	C635.9,532.9,635,532,633.9,532z"/>
<path class="st12" d="M633.9,532h-31.6c-1.1,0-2,0.9-2,2v1.1c0,1.1,0.9,2,2,2h31.6c1.1,0,2-0.9,2-2V534
	C635.9,532.9,635,532,633.9,532z"/>
<path class="st8" d="M652.3,573.7h-50c-1.1,0-2,0.9-2,2v1.1c0,1.1,0.9,2,2,2h50c1.1,0,2-0.9,2-2v-1.1
	C654.4,574.6,653.5,573.7,652.3,573.7z"/>
<path class="st12" d="M652.3,573.7h-50c-1.1,0-2,0.9-2,2v1.1c0,1.1,0.9,2,2,2h50c1.1,0,2-0.9,2-2v-1.1
	C654.4,574.6,653.5,573.7,652.3,573.7z"/>
<path class="st8" d="M633.9,615.3h-31.6c-1.1,0-2,0.9-2,2v1.1c0,1.1,0.9,2,2,2h31.6c1.1,0,2-0.9,2-2v-1.1
	C635.9,616.2,635,615.3,633.9,615.3z"/>
<path class="st12" d="M633.9,615.3h-31.6c-1.1,0-2,0.9-2,2v1.1c0,1.1,0.9,2,2,2h31.6c1.1,0,2-0.9,2-2v-1.1
	C635.9,616.2,635,615.3,633.9,615.3z"/>
<path class="st8" d="M652.3,657h-50c-1.1,0-2,0.9-2,2v1.1c0,1.1,0.9,2,2,2h50c1.1,0,2-0.9,2-2V659C654.4,657.9,653.5,657,652.3,657z
	"/>
<path class="st12" d="M652.3,657h-50c-1.1,0-2,0.9-2,2v1.1c0,1.1,0.9,2,2,2h50c1.1,0,2-0.9,2-2V659C654.4,657.9,653.5,657,652.3,657
	z"/>
<path class="st8" d="M627.5,420h-32.9c-1.1,0-2,0.9-2,2v1.6c0,1.1,0.9,2,2,2h32.9c1.1,0,2-0.9,2-2V422
	C629.5,420.9,628.6,420,627.5,420z"/>
<path class="st12" d="M627.5,420h-32.9c-1.1,0-2,0.9-2,2v1.6c0,1.1,0.9,2,2,2h32.9c1.1,0,2-0.9,2-2V422
	C629.5,420.9,628.6,420,627.5,420z"/>
<path class="st8" d="M631.8,544.8h-29.5c-1.1,0-2,0.9-2,2v1.1c0,1.1,0.9,2,2,2h29.5c1.1,0,2-0.9,2-2v-1.1
	C633.8,545.7,632.9,544.8,631.8,544.8z"/>
<path class="st12" d="M631.8,544.8h-29.5c-1.1,0-2,0.9-2,2v1.1c0,1.1,0.9,2,2,2h29.5c1.1,0,2-0.9,2-2v-1.1
	C633.8,545.7,632.9,544.8,631.8,544.8z"/>
<path class="st8" d="M631.8,586.5h-29.5c-1.1,0-2,0.9-2,2v1.1c0,1.1,0.9,2,2,2h29.5c1.1,0,2-0.9,2-2v-1.1
	C633.8,587.4,632.9,586.5,631.8,586.5z"/>
<path class="st12" d="M631.8,586.5h-29.5c-1.1,0-2,0.9-2,2v1.1c0,1.1,0.9,2,2,2h29.5c1.1,0,2-0.9,2-2v-1.1
	C633.8,587.4,632.9,586.5,631.8,586.5z"/>
<path class="st8" d="M631.8,628.2h-29.5c-1.1,0-2,0.9-2,2v1.1c0,1.1,0.9,2,2,2h29.5c1.1,0,2-0.9,2-2v-1.1
	C633.8,629.1,632.9,628.2,631.8,628.2z"/>
<path class="st12" d="M631.8,628.2h-29.5c-1.1,0-2,0.9-2,2v1.1c0,1.1,0.9,2,2,2h29.5c1.1,0,2-0.9,2-2v-1.1
	C633.8,629.1,632.9,628.2,631.8,628.2z"/>
<path class="st8" d="M631.8,669.8h-29.5c-1.1,0-2,0.9-2,2v1.1c0,1.1,0.9,2,2,2h29.5c1.1,0,2-0.9,2-2v-1.1
	C633.8,670.7,632.9,669.8,631.8,669.8z"/>
<path class="st12" d="M631.8,669.8h-29.5c-1.1,0-2,0.9-2,2v1.1c0,1.1,0.9,2,2,2h29.5c1.1,0,2-0.9,2-2v-1.1
	C633.8,670.7,632.9,669.8,631.8,669.8z"/>
<path class="st7" d="M567.8,427.5c6.4,0,11.5-5.2,11.5-11.5c0-6.4-5.2-11.5-11.5-11.5c-6.4,0-11.5,5.2-11.5,11.5
	C556.2,422.3,561.4,427.5,567.8,427.5z"/>
<path class="st7" d="M576.4,467.9c5.8,0,10.5-4.7,10.5-10.5c0-5.8-4.7-10.5-10.5-10.5c-5.8,0-10.5,4.7-10.5,10.5
	C565.9,463.2,570.6,467.9,576.4,467.9z"/>
<path class="st7" d="M576.4,509.7c5.8,0,10.5-4.7,10.5-10.5c0-5.8-4.7-10.5-10.5-10.5c-5.8,0-10.5,4.7-10.5,10.5
	C565.9,505,570.6,509.7,576.4,509.7z"/>
<path class="st7" d="M576.4,551.4c5.8,0,10.5-4.7,10.5-10.5c0-5.8-4.7-10.5-10.5-10.5c-5.8,0-10.5,4.7-10.5,10.5
	C565.9,546.7,570.6,551.4,576.4,551.4z"/>
<path class="st7" d="M576.4,593.1c5.8,0,10.5-4.7,10.5-10.5c0-5.8-4.7-10.5-10.5-10.5c-5.8,0-10.5,4.7-10.5,10.5
	C565.9,588.4,570.6,593.1,576.4,593.1z"/>
<path class="st7" d="M576.4,634.9c5.8,0,10.5-4.7,10.5-10.5c0-5.8-4.7-10.5-10.5-10.5c-5.8,0-10.5,4.7-10.5,10.5
	C565.9,630.2,570.6,634.9,576.4,634.9z"/>
<path class="st7" d="M576.4,676.6c5.8,0,10.5-4.7,10.5-10.5c0-5.8-4.7-10.5-10.5-10.5c-5.8,0-10.5,4.7-10.5,10.5
	C565.9,671.9,570.6,676.6,576.4,676.6z"/>
<path class="st5" d="M651.2,371H567c-1.1,0-2,0.9-2,2v5.1c0,1.1,0.9,2,2,2h84.2c1.1,0,2-0.9,2-2V373
	C653.2,371.9,652.3,371,651.2,371z"/>
<path class="st7" d="M79.5,462H201V307.3H79.5V462z"/>
<path class="st23" d="M95.7,446.4h89.1V322.8H95.7V446.4z"/>
<path class="st24" d="M204.5,307.3H201V462h3.5V307.3z"/>
<path class="st8" d="M125.5,401.6c10.7,0,19.3-8.6,19.3-19.3c0-10.7-8.6-19.3-19.3-19.3s-19.3,8.6-19.3,19.3
	C106.2,393,114.8,401.6,125.5,401.6z"/>
<path class="st14" d="M173.7,433.1l-20.1-31.4l-20.1,31.1L173.7,433.1z"/>
<path class="st25" d="M129.9,378h41.7v-41.7h-41.7V378z"/>
<path class="st26" d="M417.4,328.6c-0.5,0.1-0.6,0.6-0.6,1s0.6,0.6,1,0.6l3.6-0.8c0.4-0.1,0.8-0.3,1.2-0.6c0.4-0.3,0.7-0.6,0.9-1
	c0.2-0.4,0.4-0.8,0.4-1.2c0.1-0.4,0-0.9-0.1-1.3c-0.1-0.6-0.4-1.1-0.8-1.5c-0.4-0.4-0.9-0.7-1.4-0.9c-0.7-0.3-1.3-0.7-1.7-1.3
	c-0.4-0.6-0.7-1.3-0.7-2c0-0.4-0.1-0.9-0.1-1.3C417.2,310.6,417.4,328.6,417.4,328.6z"/>
<g class="st27">
	<path class="st3" d="M424,325.3c-0.2-0.9-0.8-1.6-1.6-2.1c0,0.1,0.1,0.2,0.1,0.3c0.1,0.4,0.1,0.9,0.1,1.3c-0.1,0.4-0.2,0.9-0.4,1.2
		c-0.2,0.4-0.5,0.7-0.9,1c-0.4,0.3-0.8,0.5-1.2,0.6l-2.6,0.6v0.4c-0.5,0.1-0.6,0.6-0.6,1c0.1,0.4,0.6,0.6,1,0.6l3.6-0.8
		c0.9-0.2,1.6-0.8,2.1-1.5C424,327.1,424.2,326.2,424,325.3L424,325.3z"/>
</g>
<path class="st26" d="M337.1,927.9h25.4l4.7-42.9l-29.7,0.1L337.1,927.9z"/>
<path class="st28" d="M339.7,911.6l0.8-0.7c5.8-5,15.7-4.9,21.2,0.2l0.4,0.4c0.7,0.6,1.2,1.3,1.6,2.1c0.4,0.8,0.6,1.7,0.6,2.6v2.8
	c0,1.6,0.3,3.2,0.8,4.8l2.6,7.6c0.7,1.8,1,3.7,1,5.7v1c0,1.5-1.5,2.7-3.3,2.7h-30.4c-1.9,0-3.3-1.2-3.3-2.7v-0.4
	c0-2.2,0.4-4.5,1.3-6.6l3-7.4c0.7-1.7,1.1-3.5,1.1-5.3l0.1-2.1c0.1-0.9,0.3-1.8,0.7-2.6C338.5,912.9,339,912.2,339.7,911.6z"/>
<path class="st25" d="M337.3,898.5v3.5h19.9c0.7,0,1.3,0.1,1.9,0.4c0.6,0.3,1.1,0.7,1.6,1.2c0.4,0.5,0.8,1.1,1,1.7
	c0.2,0.6,0.3,1.3,0.2,2l-1.7,15.3h3.1l2.6-24L337.3,898.5z"/>
<path class="st26" d="M430.7,895.9l1.8,26.1l51.7,2.4l-17.2-17.3c-3.3-2.4-5.3-7.5-6-11.5L430.7,895.9z"/>
<path class="st25" d="M449.8,902.3c2.4,0,4.7,0.7,6.8,1.9c2,1.2,3.7,3,4.8,5.1c0.9,1.7,2.1,3.2,3.6,4.4l12.4,12.4l7.7,0.3
	l-16.6-17.6c-3.7-2.9-6.2-7-7.3-11.6h-30.6l0.4,5.1L449.8,902.3z"/>
<path class="st28" d="M431.4,911c0,0,11.7,7.3,24.9,1c-0.3-1.4-0.2-2.8,0.3-4.1c0.5-1.3,1.3-2.5,2.3-3.3c2.2-1.7,6.6-2.3,7.8-0.7
	c1.2,1.6,3.1,4.2,6.2,8c4.4,5.3,10.3,11.3,14.9,12.3c8.4,1.8,25.3-6.8,26.5,11.1c0,0-16.5,6.2-31.9,4.7c-10-1.2-19.9-3.5-29.4-7v7.2
	h-24C429,940.1,423.6,920,431.4,911z"/>
<path d="M427.3,928.7c0.2,3.9,0.8,7.7,1.8,11.5h24V933c9.5,3.5,19.3,5.8,29.4,7c15.4,1.6,31.9-4.7,31.9-4.7
	c-0.1-1.4-0.3-2.8-0.6-4.1c-12,6.1-25.9,7.4-38.9,3.5c-8.8-2.6-15.9-4.3-22.1-6.1C452.6,928.7,432.1,928.2,427.3,928.7z"/>
<path d="M485.6,925c0,0-12.2,3.6-21.3-3.4c-6.8-5.2-10.2-8.2-7.5-14.4c0.5-1.2,1.3-2.2,2.4-3c1.1-0.8,2.3-1.2,3.7-1.2
	C462.9,903,471.4,923,485.6,925z"/>
<path class="st29" d="M462.2,557v340.4h-31.5l-27.4-277.5c-0.1-0.9-0.5-1.7-1.1-2.3s-1.5-0.9-2.4-0.9l0,0c-0.9,0-1.7,0.3-2.3,0.9
	c-0.6,0.6-1,1.4-1.1,2.3l-30.5,278.5h-28.8l9.5-339.4L462.2,557L462.2,557z"/>
<path class="st8" d="M463.3,897.4h-33.6l-0.7-6.9h34.2L463.3,897.4z"/>
<path class="st30" d="M463.3,897.4l-33.6,0l-0.7-6.9h34.2L463.3,897.4z"/>
<path class="st25" d="M463.3,897.4h-14.5v-7l14.4,0L463.3,897.4z"/>
<path class="st25" d="M351.6,898l27.9-266.9c0.5-4,2.4-7.7,5.5-10.4c3-2.7,6.9-4.2,11-4.1h3.9c-0.9,0-1.7,0.3-2.3,0.9
	c-0.6,0.6-1,1.4-1.1,2.2l-30.6,278.6L351.6,898z"/>
<path class="st25" d="M462.3,559.4v331h-13.5l-3.8-331H462.3z"/>
<path class="st26" d="M417.5,297.6l3.8,44.5c0.2,2.6-0.5,5.3-2,7.5c-1.5,2.2-3.7,3.8-6.3,4.5l-2.4,0.7l2,17.4l-16.9-2.3l-19.4,1.5
	l2.1-46.1l21.6-20.6L417.5,297.6z"/>
<path class="st26" d="M615.4,441c0,0,2.6,3.8-4.8,8.2s-27.9,4.9-27.9,4.9l12-22.2L615.4,441z"/>
<path class="st26" d="M575.5,431.9l5.7-6.3c2.5-2.8,5.5-5.1,8.8-6.7l9.7-4.9c0.4-0.2,0.8-0.3,1.2-0.3c0.4,0.1,0.8,0.3,1.1,0.7
	c0.7,1,1,2.1,1,3.3c-0.1,1.2-0.5,2.3-1.3,3.2l-6.8,5c-0.2,0.1-0.3,0.3-0.3,0.5s0,0.4,0.1,0.6l0,0c0.1,0.2,0.3,0.3,0.4,0.3
	c0.2,0.1,0.4,0.1,0.6,0l31.2-12c0.3-0.1,0.6-0.2,1-0.2c0.3,0,0.6,0.1,0.9,0.2c0.3,0.1,0.6,0.3,0.8,0.6c0.2,0.2,0.4,0.5,0.5,0.8
	c0.2,0.6,0.2,1.2,0,1.7c-0.2,0.6-0.6,1-1.2,1.3l-13.8,6.8c0,0,5.7,1.7,1.4,7c0,0,3.3,5.4-4,9.8s-29.7,10.9-29.7,10.9l-21.8,14.8
	L549,447L575.5,431.9z"/>
<path class="st31" d="M616.5,433.5l-10.2,3.9"/>
<path class="st31" d="M615.3,440.9l-10.2,3.9"/>
<path class="st31" d="M615.2,426.7l-10.2,3.9"/>
<path class="st25" d="M610.6,449.3c-7.4,4.4-27.9,4.9-27.9,4.9l-12.8,8.7l-1.5-4.2l12.6-8.6c0.8-0.5,1.7-0.8,2.7-0.8l8.3,0.3
	c7.5,0.4,16.6-0.5,23-4.5C615.1,445.2,614.7,446.6,610.6,449.3z"/>
<path d="M372.3,346.9c6.1,4.6,7.5,5,13.2,3.5c2-0.5,3.8-1.4,5.4-2.6c5.6-4.4,11.3-13.6,11.7-23.8l3.6-1.9c1-1.5,0.9-13.4-0.9-18.4
	c4-3.1,8.5-4.6,11.1-4.4c0.8,1.2,0.7,2.4,1.7,5.1c5.7-11.4-7.6-17.3-10.4-18.9c-5.5-3-17.4-3.4-24.1-2.2
	c-15.3,2.8-24.1,12.1-23.8,28.8C360.1,326.3,364.3,339.2,372.3,346.9z"/>
<path d="M402.6,324.1c2.4,10.7,4.7,27.3,8,31.4c2.8,2,9.1-0.6,10.1-7.2c1-6.4,1.5-12.4-0.4-17c-0.2,3.5-6.2,7.5-8.5,3.7l-5.7-12.8
	L402.6,324.1z"/>
<path class="st3" d="M394.3,327.9l2.3,2.1c1.6,0.5,3.3,0.9,5,1.1l-5.9,2.9L394.3,327.9z"/>
<path class="st26" d="M402.9,325.5c1,3.4,2.1,5.8-2.4,5.9c-8.5,0-10.2-11.2-5.5-13.8c0.5-0.3,1.1-0.6,1.7-0.6c0.6-0.1,1.2,0,1.8,0.1
	c0.6,0.2,1.1,0.5,1.5,0.9c0.4,0.4,0.8,0.9,1,1.4L402.9,325.5z"/>
<path class="st32" d="M400.4,324.2c-0.1-1.1-0.5-2.1-1.1-3.1c-0.5-0.7-1.2-1.1-2-1.4c-0.4,0-0.8,0-1.3,0.1c-0.4,0.1-0.8,0.3-1.1,0.6
	c-0.1,0.1-0.2,0.3-0.2,0.4s0,0.3,0.1,0.5c0.2,0.3,0.5,0.3,0.8,0.1c0.2-0.2,0.5-0.4,0.7-0.5c0.3-0.1,0.6-0.1,0.9-0.1
	c0.5,0,0.8,0.4,1.3,1c0.5,0.7,0.8,1.6,0.9,2.5l0.2,1c0,0.3,0.3,0.4,0.6,0.4c0.3,0,0.4-0.3,0.4-0.6L400.4,324.2"/>
<path class="st33" d="M423,323.7c-0.2,0-0.4-0.1-0.6-0.2c-0.2-0.1-0.3-0.3-0.3-0.5l-2.9-13c0-0.1,0-0.2,0-0.4c0-0.1,0.1-0.2,0.1-0.3
	c0.1-0.1,0.1-0.2,0.2-0.2s0.2-0.1,0.3-0.1c0.1,0,0.2,0,0.3,0c0.1,0,0.2,0.1,0.3,0.1s0.2,0.1,0.2,0.2c0.1,0.1,0.1,0.2,0.1,0.3l2.9,13
	c0,0.2,0,0.5-0.1,0.7c-0.1,0.2-0.3,0.3-0.6,0.4C423.1,323.7,423,323.7,423,323.7L423,323.7z"/>
<path class="st33" d="M421.1,314.7l-20.1,4.5l0.4,1.7l20.1-4.5L421.1,314.7z"/>
<path class="st3" d="M368.2,898.3h-17l1-6.9h16.7L368.2,898.3z"/>
<path class="st8" d="M368.2,898.3h-33.5l0.5-6.9h33.7L368.2,898.3z"/>
<path class="st34" d="M368,898.3h-33.5l0.5-6.9h33.7L368,898.3z"/>
<path class="st25" d="M368,898.3h-16.4l0.7-6.9h16.4L368,898.3z"/>
<path class="st35" d="M416.6,377.2h-36"/>
<path class="st3" d="M410.6,354.8l-7.4-0.2c-0.5,0-1,0.1-1.5,0.3c-0.5,0.2-0.9,0.6-1.1,1c-0.3,0.4-0.5,0.9-0.6,1.4
	c-0.1,0.5,0,1,0.2,1.5l2.7,7.1h9L410.6,354.8z"/>
<path class="st36" d="M368.5,368.5l3.1-7c0.7-1.6,1.8-2.9,3.2-3.9c1.4-1,3.1-1.6,4.8-1.7c12.7-0.8,23.7,1.1,33.3,8.1
	c0.7,0.5,1.2,1.2,1.5,1.9c0.3,0.8,0.5,1.6,0.4,2.4l-0.7,7.4L368.5,368.5z"/>
<path class="st37" d="M345.8,385.5l11.6-12.5c4.6-5,11.8-7.9,19.4-8l23.2-0.4c9.1-0.1,17.5,4,21.6,10.5l6.4,10.4L345.8,385.5z"/>
<path class="st26" d="M332.5,591.9l7.1,13.9l10.1-30.4L332.5,591.9z"/>
<path class="st37" d="M356.6,578.1l-26.1-58.7l-34.9-21.1l-3.1,13.2c-0.5,2.3-0.3,4.7,0.6,6.9l37.1,68.6L356.6,578.1z"/>
<path class="st37" d="M313,399.3l-19.2,106.9l36.7,13.3l17.9-142.8l-26.3,11.2c-2.3,1-4.4,2.6-6,4.6
	C314.5,394.4,313.4,396.7,313,399.3L313,399.3z"/>
<path class="st3" d="M330.4,519.5l17.9-142.8l-4.2,1.8l-19.8,141l24,54.6l6.2-1L330.4,519.5z"/>
<path class="st0" d="M329.2,585.4l3.3,6.5l23.6-22.7l-3.3-7.3L329.2,585.4z"/>
<path class="st37" d="M360,370.9c0,0-23,11.8-38.1,17.3c-2.3,0.9-4.3,2.5-5.7,4.6c-1.3,2.1-1.9,4.6-1.7,7.1
	c2.2,23.9,17.3,64.2,17.3,64.2s10.2,44.6,10.2,51.7c0,7.2-2.5,91.8-2.5,91.8h116.6l17-6.5c0,0-10.3-78.1-12.4-100
	c-2.1-21.9,1-47.9,1-47.9l-1.8-39.8l7.5-21.9l-50.8-21.7L360,370.9z"/>
<path class="st37" d="M514,463.4l10.8,37l-8.2,5.5c-3.4,2.3-7.7,3.2-11.8,2.6c-4.1-0.7-7.8-2.9-10.3-6.2l-41.6-54.1l-10.3-66.9
	c0-0.1,0-0.1,0.1-0.1c0.6,0.3,9.2,2.8,16.4,5c6.5,1.9,12.1,6.2,15.6,12.1C486.6,418,513.7,462.9,514,463.4z"/>
<path class="st3" d="M462.3,516.7c-2.5-18-2.5-39.8-2.2-40.3l1.6-23c0.6-7-10.7-7.5-10.3-1.2c0,0-1.8,46.3,0.3,64.9
	c2.1,18.6,12.8,87.2,12.8,87.2l8.6-3.3C473.2,601,464.9,535.2,462.3,516.7z"/>
<path class="st37" d="M559.4,439.1l-52.7,27.8l16.5,34.7l51-38.7L559.4,439.1z"/>
<path class="st0" d="M559.4,439.1l-6.6,3.5l15.5,24.5l6.3-4L559.4,439.1z"/>
<path class="st3" d="M345.2,607.5c0.8-5.6,2.7-85.6,2.7-92.3c0-7-14.9-52.1-14.9-52.1s-14-39.8-16.1-63.2c-0.5-5,6.5-9.7,11.2-11.4
	c14.9-5.4,31.4-16.9,31.4-16.9S337,383,322.2,388.3c-2.3,0.8-4.3,2.4-5.6,4.5s-1.9,4.5-1.7,7c2.1,23.4,16.9,64.4,16.9,64.4
	s10.2,44.5,10.2,51.6c0,7-2.5,91.8-2.5,91.8L345.2,607.5z"/>
<path class="st3" d="M385.1,607.3l4.4-36c0-0.1,0-0.1,0.1-0.2c0,0,0.1-0.1,0.2-0.1s0.1,0,0.2,0.1c0.1,0,0.1,0.1,0.1,0.2l8.2,36
	c0,0,0,0.1,0,0.1c0,0,0,0.1-0.1,0.1c0,0-0.1,0.1-0.1,0.1c0,0-0.1,0-0.1,0h-12.6c0,0-0.1,0-0.1,0s-0.1,0-0.1-0.1c0,0,0-0.1-0.1-0.1
	C385.1,607.3,385.1,607.3,385.1,607.3L385.1,607.3z"/>
</svg>
