<svg xmlns="http://www.w3.org/2000/svg" width="500" height="500" style="width:100%;height:100%;content-visibility:visible"><defs><clipPath id="a"><path d="M0 0h500v500H0z"/></clipPath></defs><g clip-path="url(#a)"><path stroke-linecap="round" stroke-linejoin="round" stroke="#14C52C" stroke-width="25.2" d="M239.727 283.002l104.559-104.987 20.53 20.53 22.215-22.214-12.757-12.757 22.216-22.215 12.756 12.757 22.216-22.215-20.531-20.531 9.12-9.222c4.338-4.338 4.337-11.37 0-15.709l-10.299-10.298c-4.338-4.338-11.37-4.339-15.708 0L213.719 256.994" fill="none" display="block"/><path stroke-linecap="round" stroke-linejoin="round" stroke="#333" stroke-width="25.2" d="M202.824 293.526s0 0 0 0M95.476 401.094l-.088-.088M202.7 293.538c29.666 29.666 29.666 77.763 0 107.428-29.665 29.665-77.762 29.665-107.427 0-29.665-29.666-29.665-77.762 0-107.427 29.665-29.665 77.762-29.666 107.427 0zm-21.721 21.723c17.668 17.669 17.668 46.315 0 63.984-17.669 17.668-46.316 17.667-63.984-.001-17.669-17.669-17.669-46.315 0-63.983 17.668-17.669 46.315-17.668 63.984 0zm21.721-21.723c29.666 29.666 29.666 77.763 0 107.428-29.665 29.665-77.762 29.665-107.427 0-29.665-29.666-29.665-77.762 0-107.427 29.665-29.665 77.762-29.666 107.427 0zm-21.721 21.723c17.668 17.669 17.668 46.315 0 63.984-17.669 17.668-46.316 17.667-63.984-.001-17.669-17.669-17.669-46.315 0-63.983 17.668-17.669 46.315-17.668 63.984 0zm43.279 9.628l19.942-19.683c4.896-4.896 4.895-12.834 0-17.73 0 0 0 0 0 0l-34.956-34.956s0 0 0 0c-4.895-4.895-12.833-4.895-17.729 0l-19.942 19.685" fill="none" display="block"/></g></svg>