<?xml version="1.0" encoding="utf-8"?>
<!-- Generator: Adobe Illustrator 25.2.1, SVG Export Plug-In . SVG Version: 6.00 Build 0)  -->
<svg version="1.1" id="Camada_1" xmlns="http://www.w3.org/2000/svg" xmlns:xlink="http://www.w3.org/1999/xlink" x="0px" y="0px"
	 viewBox="0 0 128 128" style="enable-background:new 0 0 128 128;" xml:space="preserve">
<style type="text/css">
	.st0{fill:#FFFFFF;}
	.st1{fill:none;stroke:#F7402E;stroke-width:6;stroke-linecap:round;stroke-linejoin:round;stroke-miterlimit:10;}
	.st2{fill:#71C2FF;}
	.st3{fill:none;stroke:#444B54;stroke-width:6;stroke-linecap:round;stroke-linejoin:round;stroke-miterlimit:10;}
</style>
<path class="st0" d="M80.3,72.7c7-8.5,5.7-21.1-2.8-28.1s-21.1-5.7-28.1,2.8c-5.2,6.3-5.8,14.9-2.3,21.8l0.1,0.1L19.6,96.8l1.4,7.1
	l7.1,1.4l27.5-27.5C63.8,82.1,74.2,80.2,80.3,72.7z"/>
<path class="st1" d="M52.4,44.5c-1,0.8-2,1.8-2.9,2.9c-5.2,6.3-5.8,14.9-2.3,21.8 M53.6,76.5c2.9,2,6.2,3.1,9.5,3.5"/>
<path class="st2" d="M62.2,57.2c-1.6,1.6-1.6,4.1,0,5.7c1.6,1.6,4.1,1.6,5.7,0s1.6-4.1,0-5.7C66.3,55.6,63.7,55.6,62.2,57.2z"/>
<path class="st1" d="M19.7,96.8L19.5,97l1.4,7.1l7.1,1.4l27.1-27.1 M33.9,82.6l-5.7,5.7 M47.3,69.2l-4.9,4.9"/>
<g>
	<path class="st0" d="M99.9,53C98.8,42,89,34,78,35.1C67,36.2,59,46,60.1,57c0.8,8.2,6.4,14.7,13.8,17.1H74v39l6,4l6-4v-39
		C94.9,71.3,100.9,62.6,99.9,53z"/>
	<path class="st3" d="M80.1,35c-0.7,0-1.4,0-2.1,0.1C67,36.2,59,46,60.1,57c0.8,8.2,6.4,14.7,13.8,17.1 M86,74.1
		c8.9-2.8,14.9-11.5,13.9-21.1c-0.3-2.7-1.1-5.3-2.3-7.6 M74,113L74,113l6,4l6-4V75 M74,93v8 M74,74v7"/>
</g>
<path class="st3" d="M39.8,41c-0.5-2-0.8-4.2-0.8-6.5C39,20.4,50.4,9,64.5,9S90,20.4,90,34.5c0,8.3-4,15.7-10.1,20.3"/>
</svg>
