<?xml version="1.0" encoding="utf-8"?>
<!-- Generator: Adobe Illustrator 25.2.1, SVG Export Plug-In . SVG Version: 6.00 Build 0)  -->
<svg version="1.1" id="Layer_1" xmlns="http://www.w3.org/2000/svg" xmlns:xlink="http://www.w3.org/1999/xlink" x="0px" y="0px"
	 viewBox="0 0 128 128" style="enable-background:new 0 0 128 128;" xml:space="preserve">
<style type="text/css">
	.st0{fill:#FFFFFF;}
	.st1{fill:#444B54;}
	.st2{fill:#F7402E;}
</style>
<circle class="st0" cx="64" cy="64" r="60"/>
<path class="st1" d="M114.5,99.4c-0.6,0-1.1-0.2-1.6-0.5c-1.4-0.9-1.8-2.8-0.9-4.2c5.9-9.2,9-19.8,9-30.8c0-31.4-25.6-57-57-57
	S7,32.6,7,64c0,10.9,3.1,21.4,8.9,30.6c0.9,1.4,0.5,3.2-0.9,4.1s-3.2,0.5-4.1-0.9C4.4,87.7,1,76,1,64C1,29.3,29.3,1,64,1
	s63,28.3,63,63c0,12.1-3.4,23.9-10,34C116.4,98.9,115.5,99.4,114.5,99.4z"/>
<path class="st1" d="M13.5,28.5c0.6,0,1.1,0.2,1.6,0.5c1.4,0.9,1.8,2.8,0.9,4.2C10.1,42.4,7,53,7,64c0,31.4,25.6,57,57,57
	s57-25.7,57-57.1c0-10.9-3.1-21.4-8.9-30.6c-0.9-1.4-0.5-3.2,0.9-4.1s3.2-0.5,4.1,0.9c6.5,10.1,9.9,21.8,9.9,33.8
	c0,34.7-28.3,63-63,63S1,98.6,1,63.9c0-12.1,3.4-23.9,10-34C11.6,29,12.5,28.5,13.5,28.5z"/>
<path class="st0" d="M76.4,30.8c-11.2,0-20.3,9.1-20.3,20.3s9.1,20.3,20.3,20.3s20.3-9.1,20.3-20.3S87.7,30.8,76.4,30.8z"/>
<path class="st2" d="M76.4,45.7c-3,0-5.3,2.4-5.3,5.3c0,3,2.4,5.3,5.3,5.3c3,0,5.3-2.4,5.3-5.3C81.8,48.1,79.4,45.7,76.4,45.7z"/>
<path class="st0" d="M58.9,57.9l5.8,4.9v10.7H54v10.7H43.3v10.7H32.6V84.2L58.9,57.9z"/>
<path class="st1" d="M76.4,73c-12.1,0-21.9-9.8-21.9-21.9s9.8-21.9,21.9-21.9S98.4,39,98.4,51.1S88.5,73,76.4,73z M76.4,32.4
	c-10.3,0-18.7,8.4-18.7,18.7s8.4,18.7,18.7,18.7s18.7-8.4,18.7-18.7S86.8,32.4,76.4,32.4z"/>
<path class="st1" d="M43.3,96.5H32.6c-0.9,0-1.6-0.7-1.6-1.6V84.2c0-0.4,0.2-0.9,0.5-1.1L52,62.6c0.6-0.6,1.7-0.6,2.2,0
	c0.6,0.6,0.6,1.7,0,2.2l-20,20v8.4h7.5v-9.1c0-0.9,0.7-1.6,1.6-1.6h9.1v-9.1c0-0.9,0.7-1.6,1.6-1.6h9.1c0.9,0,1.6,0.7,1.6,1.6
	s-0.7,1.6-1.6,1.6h-7.5v9.1c0,0.9-0.7,1.6-1.6,1.6h-9.1v9.1C44.9,95.8,44.2,96.5,43.3,96.5z"/>
</svg>
