<?xml version="1.0" encoding="utf-8"?>
<!-- Generator: Adobe Illustrator 25.2.1, SVG Export Plug-In . SVG Version: 6.00 Build 0)  -->
<svg version="1.1" id="Layer_1" xmlns="http://www.w3.org/2000/svg" xmlns:xlink="http://www.w3.org/1999/xlink" x="0px" y="0px"
	 viewBox="0 0 128 128" style="enable-background:new 0 0 128 128;" xml:space="preserve">
<style type="text/css">
	.st0{fill:#FFFFFF;}
	.st1{fill:#444B54;}
	.st2{fill:#F7402E;}
</style>
<circle class="st0" cx="64" cy="64" r="60"/>
<path class="st1" d="M114.5,99.4c-0.6,0-1.1-0.2-1.6-0.5c-1.4-0.9-1.8-2.8-0.9-4.2c5.9-9.2,9-19.8,9-30.8c0-31.4-25.6-57-57-57
	S7,32.6,7,64c0,10.9,3.1,21.4,8.9,30.6c0.9,1.4,0.5,3.2-0.9,4.1s-3.2,0.5-4.1-0.9C4.4,87.7,1,76,1,64C1,29.3,29.3,1,64,1
	s63,28.3,63,63c0,12.1-3.4,23.9-10,34C116.4,98.9,115.5,99.4,114.5,99.4z"/>
<path class="st1" d="M13.5,28.5c0.6,0,1.1,0.2,1.6,0.5c1.4,0.9,1.8,2.8,0.9,4.2C10.1,42.4,7,53,7,64c0,31.4,25.6,57,57,57
	s57-25.7,57-57.1c0-10.9-3.1-21.4-8.9-30.6c-0.9-1.4-0.5-3.2,0.9-4.1s3.2-0.5,4.1,0.9c6.5,10.1,9.9,21.8,9.9,33.8
	c0,34.7-28.3,63-63,63S1,98.6,1,63.9c0-12.1,3.4-23.9,10-34C11.6,29,12.5,28.5,13.5,28.5z"/>
<path class="st2" d="M79.1,40.3l8.2,8.4c0.8,0.8,0.8,2.1,0,2.9l-12,11.7c-0.8,0.8-2.1,0.8-2.9,0L64.1,55c-0.8-0.8-0.8-2.1,0-2.9
	l12-11.7C76.9,39.5,78.3,39.5,79.1,40.3z"/>
<path class="st2" d="M60.4,58.7l8.2,8.4c0.8,0.8,0.8,2.1,0,2.9l-3.4,3.3c-0.8,0.8-2.1,0.8-2.9,0L54,64.9c-0.8-0.8-0.8-2.1,0-2.9
	l3.4-3.3C58.2,57.9,59.6,57.9,60.4,58.7z"/>
<path class="st2" d="M49.9,68.9l8.2,8.4c0.8,0.8,0.8,2.1,0,2.9l-3.4,3.3c-0.8,0.8-2.1,0.8-2.9,0l-8.2-8.4c-0.8-0.8-0.8-2.1,0-2.9
	l3.4-3.3C47.8,68.1,49.1,68.1,49.9,68.9z"/>
<path class="st1" d="M96.2,47.8l-0.9-0.9l3.7-3.6c0.7-0.7,0.7-1.9,0-2.6L87.4,28.8c-0.7-0.7-1.9-0.7-2.6,0l-3.7,3.6l-0.8-0.9
	c-1.2-1.3-3.3-1.3-4.5,0l-49,48.1c-1.3,1.2-1.3,3.3,0,4.5l2.9,3c1,1,2.5,1.3,3.8,0.6c2-1.1,4.6-0.4,5.7,1.7c0.7,1.3,0.7,2.9,0,4.1
	c-0.7,1.2-0.5,2.8,0.5,3.8l3,3.1c1.2,1.3,3.3,1.3,4.5,0l49-48.1C97.4,51.1,97.4,49,96.2,47.8z M93.7,45.2l-1.5-1.6l3.4-3.3l1.5,1.6
	L93.7,45.2z M90.5,42L89,40.4l3.4-3.3l1.5,1.6L90.5,42z M87.4,38.8l-1.5-1.6l3.4-3.3l1.5,1.6L87.4,38.8z M86.1,30.7l1.5,1.6
	l-3.4,3.3L82.7,34L86.1,30.7z M45.6,98.7c-0.4,0.4-1,0.4-1.3,0l-3-3.1c-0.3-0.3-0.4-0.7-0.2-1c1.8-3.1,0.7-7.1-2.4-8.9
	c-2-1.1-4.4-1.2-6.4-0.1c-0.4,0.2-0.8,0.1-1-0.2l-2.9-3c-0.4-0.4-0.4-1,0-1.3l49-48.1c0.4-0.4,1-0.4,1.3,0l15.9,16.2
	c0.4,0.4,0.4,1,0,1.3L45.6,98.7z"/>
<path class="st1" d="M88.1,47.9l-8.2-8.4c-1.2-1.3-3.3-1.3-4.5,0l-12,11.7c-1.3,1.2-1.3,3.3,0,4.5l8.2,8.4c1.2,1.3,3.3,1.3,4.5,0
	l12-11.7C89.3,51.2,89.3,49.2,88.1,47.9z M74.5,62.6c-0.4,0.4-1,0.4-1.3,0l-8.2-8.4c-0.4-0.4-0.4-1,0-1.3l12-11.7
	c0.4-0.4,1-0.4,1.3,0l8.2,8.4c0.4,0.4,0.4,1,0,1.3L74.5,62.6z"/>
<path class="st1" d="M69.4,66.3l-8.2-8.4c-1.2-1.3-3.3-1.3-4.5,0l-3.4,3.3c-1.3,1.2-1.3,3.3,0,4.5l8.2,8.4c1.2,1.3,3.3,1.3,4.5,0
	l3.4-3.3C70.6,69.6,70.6,67.5,69.4,66.3z M64.4,72.5c-0.4,0.4-1,0.4-1.3,0l-8.2-8.4c-0.4-0.4-0.4-1,0-1.3l3.4-3.3
	c0.4-0.4,1-0.4,1.3,0l8.2,8.4c0.4,0.4,0.4,1,0,1.3L64.4,72.5z"/>
<path class="st1" d="M59,76.5l-8.2-8.4c-1.2-1.3-3.3-1.3-4.5,0l-3.4,3.3c-1.3,1.2-1.3,3.3,0,4.5l8.2,8.4c1.2,1.3,3.3,1.3,4.5,0
	l3.4-3.3C60.2,79.8,60.2,77.8,59,76.5z M54,82.7c-0.4,0.4-1,0.4-1.3,0l-8.2-8.4c-0.4-0.4-0.4-1,0-1.3l3.4-3.3c0.4-0.4,1-0.4,1.3,0
	l8.2,8.4c0.4,0.4,0.4,1,0,1.3L54,82.7z"/>
<path class="st1" d="M41.7,79.1c-0.4-0.5-1.2-0.5-1.6,0l-1.4,1.3c-1,1.1,0.5,2.7,1.6,1.6l1.4-1.3C42.1,80.2,42.1,79.5,41.7,79.1z"/>
<path class="st1" d="M44.8,82.3c-0.4-0.5-1.2-0.5-1.6,0l-1.4,1.3c-1,1.1,0.5,2.7,1.6,1.6l1.4-1.3C45.2,83.4,45.2,82.7,44.8,82.3z"/>
<path class="st1" d="M47.9,85.5c-0.4-0.5-1.2-0.5-1.6,0l-1.4,1.3c-1,1.1,0.5,2.7,1.6,1.6l1.4-1.3C48.4,86.6,48.4,85.9,47.9,85.5z"/>
</svg>
