<?xml version="1.0" encoding="utf-8"?>
<!-- Generator: Adobe Illustrator 25.2.1, SVG Export Plug-In . SVG Version: 6.00 Build 0)  -->
<svg version="1.1" id="Camada_1" xmlns="http://www.w3.org/2000/svg" xmlns:xlink="http://www.w3.org/1999/xlink" x="0px" y="0px"
	 viewBox="0 0 128 128" style="enable-background:new 0 0 128 128;" xml:space="preserve">
<style type="text/css">
	.st0{fill:#FFFFFF;}
	.st1{fill:#444B54;}
	.st2{fill:#F7402E;}
</style>
<path class="st0" d="M64,79H16C9.4,79,4,73.6,4,67l0,0c0-6.6,5.4-12,12-12h48c6.6,0,12,5.4,12,12l0,0C76,73.6,70.6,79,64,79z"/>
<polygon class="st0" points="14,43.2 14,32 114,32 114,118 14,118 "/>
<path class="st1" d="M121,115h-4V32c0-1.7-1.3-3-3-3H14c-1.7,0-3,1.3-3,3v11.2c0,1.7,1.3,3,3,3s3-1.3,3-3V35h94v80H17V90.8
	c0-1.7-1.3-3-3-3s-3,1.3-3,3V115H7c-3.3,0-6,2.7-6,6s2.7,6,6,6h114c3.3,0,6-2.7,6-6S124.3,115,121,115z"/>
<path class="st2" d="M64,82H16C7.7,82,1,75.3,1,67s6.7-15,15-15h48c8.3,0,15,6.7,15,15S72.3,82,64,82z M16,58c-5,0-9,4-9,9s4,9,9,9
	h48c5,0,9-4,9-9s-4-9-9-9H16z"/>
<path class="st2" d="M22,70c-0.8,0-1.6-0.3-2.1-0.9C19.3,68.6,19,67.8,19,67s0.3-1.6,0.9-2.1c1.1-1.1,3.1-1.1,4.2,0
	c0.6,0.6,0.9,1.3,0.9,2.1s-0.3,1.6-0.9,2.1C23.6,69.7,22.8,70,22,70z"/>
<path class="st2" d="M34,70c-0.8,0-1.6-0.3-2.1-0.9C31.3,68.6,31,67.8,31,67c0-0.2,0-0.4,0.1-0.6c0-0.2,0.1-0.4,0.2-0.6
	s0.2-0.3,0.3-0.5c0.1-0.2,0.2-0.3,0.4-0.5c0.7-0.7,1.7-1,2.7-0.8c0.2,0,0.4,0.1,0.6,0.2c0.2,0.1,0.4,0.2,0.5,0.3
	c0.2,0.1,0.3,0.2,0.5,0.4c0.1,0.1,0.3,0.3,0.4,0.5c0.1,0.2,0.2,0.3,0.3,0.5s0.1,0.4,0.2,0.6c0,0.2,0.1,0.4,0.1,0.6
	c0,0.8-0.3,1.6-0.9,2.1c-0.1,0.1-0.3,0.3-0.5,0.4s-0.3,0.2-0.5,0.3C35.2,70,35,70,34.8,70.1C34.4,70,34.2,70,34,70z"/>
<path class="st2" d="M46,70c-0.8,0-1.6-0.3-2.1-0.9C43.3,68.6,43,67.8,43,67c0-0.2,0-0.4,0.1-0.6c0-0.2,0.1-0.4,0.2-0.6
	c0.1-0.2,0.2-0.3,0.3-0.5s0.2-0.3,0.4-0.5c1.1-1.1,3.1-1.1,4.2,0c0.6,0.6,0.9,1.3,0.9,2.1s-0.3,1.6-0.9,2.1C47.6,69.7,46.8,70,46,70
	z"/>
<path class="st2" d="M58,70c-0.2,0-0.4,0-0.6-0.1c-0.2,0-0.4-0.1-0.6-0.2c-0.2-0.1-0.3-0.2-0.5-0.3c-0.2-0.1-0.3-0.2-0.5-0.4
	c-0.1-0.1-0.3-0.3-0.4-0.4c-0.1-0.2-0.2-0.3-0.3-0.5s-0.1-0.4-0.2-0.6c0-0.2-0.1-0.4-0.1-0.6s0-0.4,0.1-0.6c0-0.2,0.1-0.4,0.2-0.6
	c0.1-0.2,0.2-0.3,0.3-0.5s0.2-0.3,0.4-0.5s0.3-0.3,0.5-0.4s0.3-0.2,0.5-0.3c0.2-0.1,0.4-0.1,0.6-0.2c0.4-0.1,0.8-0.1,1.2,0
	c0.2,0,0.4,0.1,0.6,0.2c0.2,0.1,0.4,0.2,0.5,0.3c0.2,0.1,0.3,0.2,0.5,0.4c0.1,0.1,0.3,0.3,0.4,0.5c0.1,0.2,0.2,0.3,0.3,0.5
	s0.1,0.4,0.2,0.6c0,0.2,0.1,0.4,0.1,0.6c0,0.8-0.3,1.6-0.9,2.1c-0.1,0.1-0.3,0.3-0.5,0.4s-0.3,0.2-0.5,0.3c-0.2,0.1-0.4,0.1-0.6,0.2
	C58.4,70,58.2,70,58,70z"/>
</svg>
