<?xml version="1.0" encoding="utf-8"?>
<!-- Generator: Adobe Illustrator 25.2.1, SVG Export Plug-In . SVG Version: 6.00 Build 0)  -->
<svg version="1.1" id="Layer_1" xmlns="http://www.w3.org/2000/svg" xmlns:xlink="http://www.w3.org/1999/xlink" x="0px" y="0px"
	 viewBox="0 0 128 128" style="enable-background:new 0 0 128 128;" xml:space="preserve">
<style type="text/css">
	.st0{fill:#FFFFFF;}
	.st1{fill:#F7402E;}
	.st2{fill:#444B54;}
</style>
<circle class="st0" cx="64" cy="64" r="60"/>
<path class="st1" d="M114.5,99.4c-0.6,0-1.1-0.2-1.6-0.5c-1.4-0.9-1.8-2.8-0.9-4.2c5.9-9.2,9-19.8,9-30.8c0-31.4-25.6-57-57-57
	S7,32.6,7,64c0,10.9,3.1,21.4,8.9,30.6c0.9,1.4,0.5,3.2-0.9,4.1s-3.2,0.5-4.1-0.9C4.4,87.7,1,76,1,64C1,29.3,29.3,1,64,1
	s63,28.3,63,63c0,12.1-3.4,23.9-10,34C116.4,98.9,115.5,99.4,114.5,99.4z"/>
<path class="st2" d="M64,127c-15.7,0-30.7-5.8-42.3-16.3c-1.2-1.1-1.3-3-0.2-4.2l0.3-0.3c0,0,0.1-0.1,0.1-0.1
	c23.2-23.2,61-23.2,84.2,0c0.1,0.1,0.2,0.2,0.2,0.3c0.1,0.1,0.1,0.1,0.2,0.2c1.1,1.2,1,3.1-0.2,4.2C94.7,121.2,79.7,127,64,127z
	 M28.2,108.3C38.3,116.5,50.9,121,64,121s25.7-4.5,35.8-12.7C79.5,90,48.5,90,28.2,108.3z"/>
<path class="st2" d="M64,77c-12.7,0-23-10.3-23-23s10.3-23,23-23s23,10.3,23,23S76.7,77,64,77z M64,37c-9.4,0-17,7.6-17,17
	s7.6,17,17,17s17-7.6,17-17S73.4,37,64,37z"/>
</svg>
